<?xml version="1.0" encoding="utf-8" standalone="no"?>
<!DOCTYPE svg PUBLIC "-//W3C//DTD SVG 1.1//EN"
  "http://www.w3.org/Graphics/SVG/1.1/DTD/svg11.dtd">
<!-- Created with matplotlib (http://matplotlib.org/) -->
<svg height="288pt" version="1.1" viewBox="0 0 432 288" width="432pt" xmlns="http://www.w3.org/2000/svg" xmlns:xlink="http://www.w3.org/1999/xlink">
 <defs>
  <style type="text/css">
*{stroke-linecap:butt;stroke-linejoin:round;stroke-miterlimit:100000;}
  </style>
 </defs>
 <g id="figure_1">
  <g id="patch_1">
   <path d="M 0 288 
L 432 288 
L 432 0 
L 0 0 
z
" style="fill:#ffffff;"/>
  </g>
  <g id="axes_1">
   <g id="patch_2">
    <path d="M 54 252 
L 388.8 252 
L 388.8 28.8 
L 54 28.8 
z
" style="fill:#ffffff;"/>
   </g>
   <g id="line2d_1">
    <path clip-path="url(#pffdc628cd6)" d="M 54 62.28 
L 54.13392 77.16 
L 54.26784 49.26 
L 54.40176 75.3 
L 54.53568 77.16 
L 54.80352 92.04 
L 54.93744 84.6 
L 55.07136 99.48 
L 55.20528 97.62 
L 55.3392 103.2 
L 55.47312 97.62 
L 55.60704 108.78 
L 55.74096 103.2 
L 55.87488 112.5 
L 56.0088 103.2 
L 56.27664 118.08 
L 56.41056 116.22 
L 56.54448 123.66 
L 56.6784 116.22 
L 56.94624 123.66 
L 57.08016 112.5 
L 57.348 129.24 
L 57.61584 116.22 
L 57.74976 136.68 
L 57.88368 132.96 
L 58.0176 134.82 
L 58.15152 131.1 
L 58.28544 131.1 
L 58.55328 138.54 
L 58.6872 142.26 
L 58.82112 129.24 
L 58.95504 134.82 
L 59.08896 131.1 
L 59.22288 147.84 
L 59.3568 129.24 
L 59.49072 131.1 
L 59.75856 149.7 
L 59.89248 140.4 
L 60.0264 142.26 
L 60.16032 145.98 
L 60.29424 155.28 
L 60.42816 129.24 
L 60.56208 160.86 
L 60.696 157.14 
L 60.82992 129.24 
L 60.96384 145.98 
L 61.09776 145.98 
L 61.23168 153.42 
L 61.3656 147.84 
L 61.49952 151.56 
L 61.63344 160.86 
L 61.76736 159 
L 61.90128 155.28 
L 62.0352 155.28 
L 62.16912 151.56 
L 62.30304 159 
L 62.43696 157.14 
L 62.57088 149.7 
L 62.7048 162.72 
L 62.97264 147.84 
L 63.10656 166.44 
L 63.24048 145.98 
L 63.3744 147.84 
L 63.64224 159 
L 63.77616 151.56 
L 63.91008 170.16 
L 64.044 157.14 
L 64.17792 157.14 
L 64.31184 153.42 
L 64.44576 157.14 
L 64.57968 172.02 
L 64.7136 162.72 
L 64.84752 164.58 
L 64.98144 159 
L 65.11536 160.86 
L 65.24928 147.84 
L 65.3832 155.28 
L 65.51712 155.28 
L 65.65104 172.02 
L 65.78496 162.72 
L 65.91888 164.58 
L 66.0528 162.72 
L 66.32064 170.16 
L 66.45456 149.7 
L 66.99024 170.16 
L 67.12416 159 
L 67.25808 159 
L 67.392 164.58 
L 67.52592 159 
L 67.65984 170.16 
L 67.92768 162.72 
L 68.19552 170.16 
L 68.46336 159 
L 68.86512 168.3 
L 68.99904 155.28 
L 69.13296 168.3 
L 69.26688 164.58 
L 69.4008 164.58 
L 69.53472 159 
L 69.66864 159 
L 69.80256 170.16 
L 69.93648 172.02 
L 70.0704 153.42 
L 70.20432 166.44 
L 70.47216 160.86 
L 70.60608 160.86 
L 70.74 159 
L 70.87392 151.56 
L 71.00784 155.28 
L 71.14176 166.44 
L 71.27568 164.58 
L 71.4096 172.02 
L 71.54352 160.86 
L 71.67744 168.3 
L 71.94528 164.58 
L 72.0792 147.84 
L 72.34704 166.44 
L 72.48096 175.74 
L 72.61488 164.58 
L 72.88272 168.3 
L 73.01664 153.42 
L 73.15056 170.16 
L 73.28448 144.12 
L 73.4184 160.86 
L 73.68624 160.86 
L 73.82016 164.58 
L 73.95408 172.02 
L 74.088 160.86 
L 74.22192 170.16 
L 74.35584 166.44 
L 74.48976 166.44 
L 74.7576 155.28 
L 74.89152 151.56 
L 75.15936 164.58 
L 75.4272 164.58 
L 75.56112 159 
L 75.69504 170.16 
L 75.82896 164.58 
L 75.96288 175.74 
L 76.0968 164.58 
L 76.23072 166.44 
L 76.36464 151.56 
L 76.63248 175.74 
L 76.7664 172.02 
L 76.90032 177.6 
L 77.16816 160.86 
L 77.436 177.6 
L 77.56992 168.3 
L 77.70384 170.16 
L 77.97168 157.14 
L 78.1056 177.6 
L 78.23952 164.58 
L 78.37344 168.3 
L 78.64128 153.42 
L 78.7752 172.02 
L 78.90912 170.16 
L 79.04304 162.72 
L 79.17696 162.72 
L 79.4448 170.16 
L 79.57872 168.3 
L 79.71264 162.72 
L 79.84656 164.58 
L 79.98048 160.86 
L 80.1144 173.88 
L 80.24832 160.86 
L 80.38224 168.3 
L 80.51616 162.72 
L 80.65008 166.44 
L 80.784 166.44 
L 80.91792 172.02 
L 81.05184 166.44 
L 81.31968 177.6 
L 81.58752 159 
L 81.72144 170.16 
L 81.85536 166.44 
L 81.98928 168.3 
L 82.1232 157.14 
L 82.25712 177.6 
L 82.39104 173.88 
L 82.65888 159 
L 82.92672 162.72 
L 83.06064 160.86 
L 83.19456 153.42 
L 83.32848 153.42 
L 83.59632 172.02 
L 83.86416 151.56 
L 84.132 173.88 
L 84.26592 160.86 
L 84.39984 164.58 
L 84.53376 175.74 
L 84.66768 168.3 
L 84.8016 170.16 
L 84.93552 173.88 
L 85.06944 162.72 
L 85.20336 179.46 
L 85.33728 177.6 
L 85.4712 170.16 
L 85.73904 173.88 
L 85.87296 168.3 
L 86.00688 168.3 
L 86.27472 162.72 
L 86.40864 170.16 
L 86.54256 168.3 
L 86.67648 168.3 
L 86.8104 177.6 
L 86.94432 166.44 
L 87.07824 164.58 
L 87.21216 166.44 
L 87.34608 170.16 
L 87.61392 160.86 
L 87.74784 177.6 
L 87.88176 173.88 
L 88.01568 173.88 
L 88.1496 172.02 
L 88.28352 173.88 
L 88.41744 172.02 
L 88.68528 157.14 
L 88.8192 170.16 
L 88.95312 170.16 
L 89.08704 172.02 
L 89.22096 166.44 
L 89.35488 173.88 
L 89.4888 160.86 
L 89.62272 173.88 
L 89.75664 172.02 
L 89.89056 177.6 
L 90.02448 172.02 
L 90.1584 179.46 
L 90.29232 166.44 
L 90.56016 185.04 
L 90.69408 159 
L 90.96192 170.16 
L 91.09584 168.3 
L 91.22976 168.3 
L 91.36368 164.58 
L 91.4976 179.46 
L 91.63152 179.46 
L 91.76544 166.44 
L 91.89936 181.32 
L 92.1672 164.58 
L 92.30112 179.46 
L 92.43504 149.7 
L 92.70288 175.74 
L 92.8368 170.16 
L 92.97072 183.18 
L 93.23856 164.58 
L 93.37248 166.44 
L 93.5064 175.74 
L 93.64032 175.74 
L 93.90816 170.16 
L 94.04208 173.88 
L 94.30992 168.3 
L 94.44384 170.16 
L 94.57776 177.6 
L 94.71168 175.74 
L 94.97952 159 
L 95.11344 159 
L 95.24736 164.58 
L 95.5152 186.9 
L 95.78304 166.44 
L 95.91696 166.44 
L 96.05088 175.74 
L 96.1848 164.58 
L 96.31872 168.3 
L 96.45264 162.72 
L 96.58656 173.88 
L 96.72048 168.3 
L 96.98832 172.02 
L 97.12224 175.74 
L 97.25616 170.16 
L 97.39008 175.74 
L 97.524 164.58 
L 97.65792 164.58 
L 97.79184 162.72 
L 97.92576 166.44 
L 98.05968 185.04 
L 98.1936 166.44 
L 98.32752 166.44 
L 98.46144 157.14 
L 98.59536 172.02 
L 98.72928 166.44 
L 98.8632 175.74 
L 98.99712 170.16 
L 99.13104 175.74 
L 99.26496 164.58 
L 99.39888 175.74 
L 99.5328 175.74 
L 99.66672 164.58 
L 99.80064 170.16 
L 99.93456 162.72 
L 100.06848 168.3 
L 100.33632 183.18 
L 100.47024 172.02 
L 100.60416 173.88 
L 100.73808 177.6 
L 100.872 172.02 
L 101.00592 181.32 
L 101.27376 175.74 
L 101.40768 177.6 
L 101.5416 175.74 
L 101.80944 179.46 
L 101.94336 164.58 
L 102.07728 166.44 
L 102.2112 170.16 
L 102.34512 179.46 
L 102.47904 160.86 
L 102.61296 172.02 
L 102.74688 164.58 
L 103.01472 173.88 
L 103.14864 170.16 
L 103.28256 181.32 
L 103.41648 173.88 
L 103.5504 175.74 
L 103.68432 183.18 
L 103.81824 155.28 
L 103.95216 177.6 
L 104.08608 181.32 
L 104.22 175.74 
L 104.35392 175.74 
L 104.48784 173.88 
L 104.75568 166.44 
L 104.8896 177.6 
L 105.15744 164.58 
L 105.29136 170.16 
L 105.42528 164.58 
L 105.5592 173.88 
L 105.69312 166.44 
L 106.09488 186.9 
L 106.36272 173.88 
L 106.49664 173.88 
L 106.63056 166.44 
L 106.8984 170.16 
L 107.03232 168.3 
L 107.30016 179.46 
L 107.43408 183.18 
L 107.568 166.44 
L 107.70192 166.44 
L 107.83584 181.32 
L 107.96976 177.6 
L 108.10368 179.46 
L 108.2376 170.16 
L 108.37152 177.6 
L 108.50544 170.16 
L 108.63936 177.6 
L 109.04112 168.3 
L 109.17504 159 
L 109.30896 177.6 
L 109.5768 168.3 
L 109.71072 168.3 
L 109.84464 162.72 
L 109.97856 177.6 
L 110.11248 170.16 
L 110.2464 170.16 
L 110.38032 172.02 
L 110.51424 183.18 
L 110.64816 177.6 
L 110.78208 179.46 
L 110.916 183.18 
L 111.04992 183.18 
L 111.18384 186.9 
L 111.31776 175.74 
L 111.45168 177.6 
L 111.5856 181.32 
L 111.85344 173.88 
L 111.98736 173.88 
L 112.2552 186.9 
L 112.52304 168.3 
L 112.65696 185.04 
L 112.79088 183.18 
L 112.9248 183.18 
L 113.05872 190.62 
L 113.19264 175.74 
L 113.32656 179.46 
L 113.46048 175.74 
L 113.5944 181.32 
L 113.72832 177.6 
L 113.86224 168.3 
L 113.99616 185.04 
L 114.13008 175.74 
L 114.264 181.32 
L 114.39792 173.88 
L 114.53184 175.74 
L 114.66576 173.88 
L 114.79968 183.18 
L 114.9336 173.88 
L 115.06752 175.74 
L 115.20144 186.9 
L 115.33536 179.46 
L 115.46928 183.18 
L 115.6032 177.6 
L 115.73712 179.46 
L 115.87104 185.04 
L 116.00496 173.88 
L 116.13888 181.32 
L 116.2728 170.16 
L 116.54064 173.88 
L 116.67456 188.76 
L 116.9424 181.32 
L 117.07632 181.32 
L 117.21024 194.34 
L 117.47808 173.88 
L 117.612 175.74 
L 117.74592 181.32 
L 117.87984 172.02 
L 118.14768 188.76 
L 118.2816 183.18 
L 118.41552 183.18 
L 118.54944 175.74 
L 118.68336 183.18 
L 118.81728 172.02 
L 119.08512 186.9 
L 119.35296 183.18 
L 119.48688 170.16 
L 119.6208 170.16 
L 119.88864 177.6 
L 120.02256 181.32 
L 120.15648 177.6 
L 120.42432 186.9 
L 120.69216 172.02 
L 120.96 185.04 
L 121.09392 183.18 
L 121.22784 186.9 
L 121.36176 166.44 
L 121.49568 177.6 
L 121.6296 177.6 
L 121.76352 173.88 
L 121.89744 190.62 
L 122.03136 172.02 
L 122.16528 177.6 
L 122.2992 166.44 
L 122.56704 186.9 
L 122.70096 179.46 
L 122.83488 179.46 
L 122.9688 181.32 
L 123.10272 173.88 
L 123.23664 192.48 
L 123.37056 173.88 
L 123.50448 175.74 
L 123.6384 183.18 
L 123.77232 175.74 
L 123.90624 186.9 
L 124.04016 181.32 
L 124.17408 185.04 
L 124.44192 170.16 
L 124.57584 177.6 
L 124.70976 175.74 
L 124.84368 175.74 
L 125.11152 185.04 
L 125.24544 181.32 
L 125.37936 183.18 
L 125.51328 188.76 
L 125.78112 179.46 
L 126.04896 164.58 
L 126.3168 185.04 
L 126.45072 175.74 
L 126.58464 185.04 
L 126.71856 172.02 
L 126.85248 183.18 
L 126.9864 175.74 
L 127.12032 188.76 
L 127.25424 177.6 
L 127.38816 188.76 
L 127.656 175.74 
L 127.78992 190.62 
L 127.92384 183.18 
L 128.05776 190.62 
L 128.19168 179.46 
L 128.3256 186.9 
L 128.45952 185.04 
L 128.59344 177.6 
L 128.72736 179.46 
L 128.86128 183.18 
L 128.9952 177.6 
L 129.12912 185.04 
L 129.39696 185.04 
L 129.53088 188.76 
L 129.6648 181.32 
L 129.93264 185.04 
L 130.20048 179.46 
L 130.3344 186.9 
L 130.46832 175.74 
L 130.73616 188.76 
L 130.87008 181.32 
L 131.004 181.32 
L 131.13792 183.18 
L 131.27184 192.48 
L 131.40576 185.04 
L 131.53968 192.48 
L 131.6736 192.48 
L 131.80752 179.46 
L 131.94144 188.76 
L 132.07536 183.18 
L 132.3432 192.48 
L 132.47712 192.48 
L 132.61104 190.62 
L 132.74496 186.9 
L 132.87888 192.48 
L 133.0128 181.32 
L 133.28064 192.48 
L 133.41456 192.48 
L 133.54848 183.18 
L 133.6824 194.34 
L 133.95024 185.04 
L 134.08416 194.34 
L 134.352 185.04 
L 134.61984 188.76 
L 134.75376 201.78 
L 135.0216 188.76 
L 135.15552 186.9 
L 135.28944 183.18 
L 135.42336 183.18 
L 135.55728 196.2 
L 135.6912 198.06 
L 135.95904 192.48 
L 136.09296 198.06 
L 136.3608 183.18 
L 136.49472 201.78 
L 136.62864 190.62 
L 136.76256 199.92 
L 136.89648 192.48 
L 137.0304 194.34 
L 137.29824 186.9 
L 137.43216 192.48 
L 137.56608 192.48 
L 137.7 205.5 
L 137.83392 192.48 
L 137.96784 203.64 
L 138.23568 199.92 
L 138.3696 199.92 
L 138.50352 198.06 
L 138.63744 199.92 
L 138.77136 199.92 
L 138.90528 192.48 
L 139.0392 192.48 
L 139.17312 205.5 
L 139.30704 194.34 
L 139.44096 201.78 
L 139.57488 192.48 
L 139.7088 199.92 
L 139.84272 190.62 
L 139.97664 192.48 
L 140.11056 205.5 
L 140.24448 205.5 
L 140.3784 196.2 
L 140.51232 201.78 
L 140.78016 190.62 
L 140.91408 211.08 
L 141.048 186.9 
L 141.18192 199.92 
L 141.31584 198.06 
L 141.44976 199.92 
L 141.58368 198.06 
L 141.85152 201.78 
L 141.98544 201.78 
L 142.11936 190.62 
L 142.65504 203.64 
L 142.78896 201.78 
L 142.92288 203.64 
L 143.0568 194.34 
L 143.19072 205.5 
L 143.32464 205.5 
L 143.45856 198.06 
L 143.59248 209.22 
L 143.7264 192.48 
L 143.86032 201.78 
L 143.99424 198.06 
L 144.12816 198.06 
L 144.26208 201.78 
L 144.396 198.06 
L 144.52992 203.64 
L 144.66384 194.34 
L 144.79776 205.5 
L 144.93168 194.34 
L 145.33344 207.36 
L 145.60128 198.06 
L 145.86912 207.36 
L 146.00304 198.06 
L 146.13696 201.78 
L 146.27088 198.06 
L 146.53872 198.06 
L 146.67264 209.22 
L 146.80656 198.06 
L 146.94048 199.92 
L 147.0744 190.62 
L 147.20832 194.34 
L 147.34224 203.64 
L 147.47616 203.64 
L 147.61008 201.78 
L 147.744 190.62 
L 147.87792 207.36 
L 148.01184 198.06 
L 148.14576 203.64 
L 148.27968 194.34 
L 148.4136 198.06 
L 148.54752 198.06 
L 148.81536 201.78 
L 148.94928 209.22 
L 149.21712 194.34 
L 149.48496 205.5 
L 149.61888 199.92 
L 149.7528 207.36 
L 150.02064 198.06 
L 150.15456 198.06 
L 150.28848 207.36 
L 150.4224 203.64 
L 150.55632 211.08 
L 150.69024 192.48 
L 150.82416 198.06 
L 150.95808 198.06 
L 151.092 196.2 
L 151.35984 205.5 
L 151.49376 199.92 
L 151.62768 203.64 
L 151.89552 194.34 
L 152.02944 192.48 
L 152.29728 203.64 
L 152.56512 198.06 
L 152.69904 196.2 
L 152.83296 207.36 
L 152.96688 198.06 
L 153.1008 207.36 
L 153.23472 205.5 
L 153.36864 199.92 
L 153.50256 205.5 
L 153.63648 205.5 
L 153.7704 211.08 
L 153.90432 201.78 
L 154.03824 211.08 
L 154.17216 198.06 
L 154.30608 196.2 
L 154.44 199.92 
L 154.70784 192.48 
L 154.84176 205.5 
L 155.1096 198.06 
L 155.24352 198.06 
L 155.37744 207.36 
L 155.51136 196.2 
L 155.64528 203.64 
L 155.91312 196.2 
L 156.04704 207.36 
L 156.18096 203.64 
L 156.31488 209.22 
L 156.4488 203.64 
L 156.58272 207.36 
L 156.85056 201.78 
L 157.1184 198.06 
L 157.25232 205.5 
L 157.52016 198.06 
L 157.65408 205.5 
L 157.788 201.78 
L 157.92192 201.78 
L 158.05584 205.5 
L 158.18976 201.78 
L 158.32368 194.34 
L 158.4576 199.92 
L 158.59152 199.92 
L 158.72544 198.06 
L 158.85936 203.64 
L 158.99328 198.06 
L 159.1272 203.64 
L 159.26112 198.06 
L 159.52896 205.5 
L 159.66288 198.06 
L 159.93072 209.22 
L 160.06464 205.5 
L 160.19856 214.8 
L 160.4664 207.36 
L 160.60032 205.5 
L 160.86816 209.22 
L 161.00208 209.22 
L 161.136 214.8 
L 161.40384 205.5 
L 161.67168 201.78 
L 161.8056 212.94 
L 161.93952 201.78 
L 162.07344 201.78 
L 162.20736 198.06 
L 162.4752 203.64 
L 162.60912 203.64 
L 162.74304 209.22 
L 162.87696 199.92 
L 163.01088 211.08 
L 163.1448 205.5 
L 163.27872 205.5 
L 163.41264 214.8 
L 163.54656 209.22 
L 163.68048 211.08 
L 163.8144 209.22 
L 164.08224 203.64 
L 164.21616 212.94 
L 164.35008 203.64 
L 164.61792 212.94 
L 164.75184 209.22 
L 164.88576 212.94 
L 165.01968 203.64 
L 165.1536 203.64 
L 165.28752 207.36 
L 165.42144 201.78 
L 165.55536 216.66 
L 165.68928 216.66 
L 165.8232 207.36 
L 165.95712 207.36 
L 166.09104 196.2 
L 166.35888 218.52 
L 166.4928 205.5 
L 166.62672 205.5 
L 166.76064 207.36 
L 166.89456 212.94 
L 167.02848 211.08 
L 167.1624 216.66 
L 167.29632 212.94 
L 167.43024 203.64 
L 167.56416 211.08 
L 167.69808 207.36 
L 167.832 207.36 
L 167.96592 205.5 
L 168.09984 212.94 
L 168.23376 211.08 
L 168.36768 214.8 
L 168.5016 211.08 
L 168.63552 212.94 
L 168.76944 212.94 
L 168.90336 207.36 
L 169.03728 214.8 
L 169.1712 207.36 
L 169.43904 212.94 
L 169.57296 203.64 
L 169.8408 214.8 
L 170.10864 214.8 
L 170.24256 216.66 
L 170.37648 214.8 
L 170.5104 214.8 
L 170.64432 212.94 
L 170.77824 214.8 
L 170.91216 207.36 
L 171.18 220.38 
L 171.31392 212.94 
L 171.44784 212.94 
L 171.71568 220.38 
L 171.8496 209.22 
L 171.98352 211.08 
L 172.11744 203.64 
L 172.25136 205.5 
L 172.5192 218.52 
L 172.78704 214.8 
L 172.92096 207.36 
L 173.1888 214.8 
L 173.32272 214.8 
L 173.45664 212.94 
L 173.59056 209.22 
L 173.72448 214.8 
L 173.99232 214.8 
L 174.12624 211.08 
L 174.26016 211.08 
L 174.39408 214.8 
L 174.528 214.8 
L 174.66192 207.36 
L 174.79584 218.52 
L 175.06368 209.22 
L 175.33152 220.38 
L 175.59936 205.5 
L 175.73328 216.66 
L 176.13504 211.08 
L 176.26896 216.66 
L 176.40288 216.66 
L 176.5368 218.52 
L 176.67072 214.8 
L 176.80464 207.36 
L 176.93856 216.66 
L 177.07248 214.8 
L 177.2064 209.22 
L 177.34032 209.22 
L 177.60816 214.8 
L 177.74208 214.8 
L 177.876 211.08 
L 178.14384 216.66 
L 178.27776 214.8 
L 178.41168 214.8 
L 178.5456 216.66 
L 178.67952 214.8 
L 178.81344 211.08 
L 178.94736 220.38 
L 179.08128 214.8 
L 179.2152 214.8 
L 179.34912 218.52 
L 179.48304 212.94 
L 179.61696 218.52 
L 179.75088 216.66 
L 179.8848 211.08 
L 180.01872 214.8 
L 180.15264 214.8 
L 180.28656 216.66 
L 180.42048 214.8 
L 180.5544 211.08 
L 180.68832 214.8 
L 180.82224 212.94 
L 180.95616 214.8 
L 181.09008 220.38 
L 181.224 211.08 
L 181.35792 216.66 
L 181.49184 214.8 
L 181.8936 214.8 
L 182.02752 218.52 
L 182.16144 218.52 
L 182.29536 216.66 
L 182.42928 211.08 
L 182.5632 220.38 
L 182.69712 216.66 
L 182.83104 220.38 
L 182.96496 216.66 
L 183.09888 218.52 
L 183.2328 216.66 
L 183.36672 222.24 
L 183.50064 214.8 
L 183.63456 214.8 
L 183.9024 222.24 
L 184.03632 218.52 
L 184.17024 220.38 
L 184.70592 207.36 
L 184.83984 216.66 
L 184.97376 216.66 
L 185.10768 218.52 
L 185.2416 212.94 
L 185.50944 222.24 
L 185.64336 212.94 
L 185.9112 222.24 
L 186.04512 214.8 
L 186.17904 222.24 
L 186.31296 220.38 
L 186.44688 211.08 
L 186.71472 216.66 
L 186.84864 212.94 
L 187.2504 222.24 
L 187.51824 214.8 
L 187.65216 220.38 
L 187.78608 218.52 
L 187.92 212.94 
L 188.18784 220.38 
L 188.32176 216.66 
L 188.5896 220.38 
L 188.72352 220.38 
L 188.85744 218.52 
L 188.99136 218.52 
L 189.12528 216.66 
L 189.2592 218.52 
L 189.39312 218.52 
L 189.52704 222.24 
L 189.66096 222.24 
L 189.9288 214.8 
L 190.19664 220.38 
L 190.33056 216.66 
L 190.5984 224.1 
L 190.73232 220.38 
L 190.86624 222.24 
L 191.00016 218.52 
L 191.268 218.52 
L 191.40192 222.24 
L 191.53584 220.38 
L 191.66976 216.66 
L 191.80368 218.52 
L 191.9376 218.52 
L 192.07152 220.38 
L 192.20544 220.38 
L 192.33936 222.24 
L 192.47328 218.52 
L 192.6072 222.24 
L 192.87504 214.8 
L 193.00896 220.38 
L 193.2768 220.38 
L 193.41072 214.8 
L 193.54464 214.8 
L 193.81248 222.24 
L 193.9464 220.38 
L 194.08032 220.38 
L 194.21424 218.52 
L 194.34816 218.52 
L 194.48208 224.1 
L 194.616 216.66 
L 194.74992 216.66 
L 194.88384 222.24 
L 195.01776 216.66 
L 195.2856 224.1 
L 195.55344 224.1 
L 195.9552 214.8 
L 196.08912 220.38 
L 196.22304 216.66 
L 196.35696 220.38 
L 196.49088 220.38 
L 196.6248 216.66 
L 196.75872 220.38 
L 196.89264 211.08 
L 197.02656 224.1 
L 197.16048 211.08 
L 197.2944 216.66 
L 197.42832 216.66 
L 197.56224 214.8 
L 197.69616 216.66 
L 197.83008 216.66 
L 197.964 218.52 
L 198.23184 224.1 
L 198.49968 212.94 
L 198.6336 220.38 
L 198.76752 220.38 
L 198.90144 218.52 
L 199.03536 222.24 
L 199.16928 222.24 
L 199.3032 214.8 
L 199.57104 224.1 
L 199.70496 218.52 
L 199.83888 222.24 
L 200.10672 216.66 
L 200.24064 218.52 
L 200.37456 224.1 
L 200.50848 220.38 
L 200.6424 222.24 
L 200.77632 218.52 
L 200.91024 218.52 
L 201.04416 222.24 
L 201.312 214.8 
L 201.44592 220.38 
L 201.57984 216.66 
L 201.71376 220.38 
L 201.84768 216.66 
L 201.9816 216.66 
L 202.11552 222.24 
L 202.24944 218.52 
L 202.51728 218.52 
L 202.6512 220.38 
L 202.91904 220.38 
L 203.05296 218.52 
L 203.18688 212.94 
L 203.3208 216.66 
L 203.45472 216.66 
L 203.58864 224.1 
L 203.72256 220.38 
L 203.85648 220.38 
L 203.9904 224.1 
L 204.12432 218.52 
L 204.25824 222.24 
L 204.52608 218.52 
L 204.66 222.24 
L 204.92784 218.52 
L 205.06176 222.24 
L 205.19568 222.24 
L 205.3296 220.38 
L 205.46352 216.66 
L 205.59744 216.66 
L 205.73136 220.38 
L 205.9992 220.38 
L 206.13312 214.8 
L 206.26704 218.52 
L 206.40096 218.52 
L 206.53488 224.1 
L 206.6688 222.24 
L 206.80272 218.52 
L 206.93664 220.38 
L 207.07056 218.52 
L 207.3384 222.24 
L 207.47232 222.24 
L 207.60624 220.38 
L 207.87408 212.94 
L 208.14192 220.38 
L 208.27584 216.66 
L 208.40976 224.1 
L 208.54368 222.24 
L 208.6776 222.24 
L 208.81152 224.1 
L 208.94544 222.24 
L 209.07936 212.94 
L 209.3472 220.38 
L 209.48112 222.24 
L 209.61504 212.94 
L 209.88288 222.24 
L 210.0168 218.52 
L 210.15072 222.24 
L 210.28464 220.38 
L 210.41856 222.24 
L 210.55248 220.38 
L 210.6864 222.24 
L 210.82032 222.24 
L 210.95424 224.1 
L 211.08816 220.38 
L 211.22208 222.24 
L 211.356 220.38 
L 211.48992 220.38 
L 211.62384 218.52 
L 211.75776 222.24 
L 211.89168 216.66 
L 212.0256 220.38 
L 212.15952 218.52 
L 212.29344 218.52 
L 212.42736 220.38 
L 212.56128 220.38 
L 212.6952 224.1 
L 212.96304 218.52 
L 213.23088 222.24 
L 213.3648 216.66 
L 213.49872 222.24 
L 213.63264 222.24 
L 213.76656 216.66 
L 213.90048 220.38 
L 214.0344 220.38 
L 214.16832 216.66 
L 214.30224 216.66 
L 214.43616 224.1 
L 214.57008 214.8 
L 214.704 220.38 
L 214.83792 216.66 
L 214.97184 216.66 
L 215.10576 214.8 
L 215.23968 222.24 
L 215.3736 222.24 
L 215.50752 214.8 
L 215.64144 222.24 
L 215.77536 220.38 
L 215.90928 222.24 
L 216.0432 222.24 
L 216.17712 212.94 
L 216.44496 220.38 
L 216.57888 222.24 
L 216.7128 222.24 
L 216.84672 220.38 
L 216.98064 220.38 
L 217.11456 222.24 
L 217.24848 222.24 
L 217.3824 218.52 
L 217.51632 218.52 
L 217.65024 220.38 
L 217.78416 218.52 
L 217.91808 218.52 
L 218.052 222.24 
L 218.31984 211.08 
L 218.45376 218.52 
L 218.58768 214.8 
L 218.7216 218.52 
L 218.85552 216.66 
L 218.98944 224.1 
L 219.12336 218.52 
L 219.25728 224.1 
L 219.3912 220.38 
L 219.52512 224.1 
L 219.79296 218.52 
L 219.92688 220.38 
L 220.19472 220.38 
L 220.32864 224.1 
L 220.46256 220.38 
L 220.7304 224.1 
L 220.86432 212.94 
L 220.99824 222.24 
L 221.13216 216.66 
L 221.26608 220.38 
L 221.4 220.38 
L 221.53392 222.24 
L 221.66784 220.38 
L 221.80176 224.1 
L 221.93568 222.24 
L 222.0696 212.94 
L 222.20352 220.38 
L 222.33744 218.52 
L 222.47136 220.38 
L 222.87312 220.38 
L 223.00704 216.66 
L 223.27488 222.24 
L 223.4088 220.38 
L 223.54272 222.24 
L 223.67664 222.24 
L 223.81056 220.38 
L 223.94448 216.66 
L 224.0784 220.38 
L 224.21232 216.66 
L 224.34624 218.52 
L 224.48016 222.24 
L 224.61408 220.38 
L 224.748 216.66 
L 224.88192 224.1 
L 225.01584 220.38 
L 225.14976 220.38 
L 225.28368 225.96 
L 225.55152 216.66 
L 225.68544 216.66 
L 225.81936 222.24 
L 225.95328 220.38 
L 226.35504 220.38 
L 226.48896 224.1 
L 226.62288 220.38 
L 226.7568 212.94 
L 226.89072 224.1 
L 227.02464 220.38 
L 227.15856 220.38 
L 227.4264 224.1 
L 227.56032 218.52 
L 227.82816 224.1 
L 227.96208 224.1 
L 228.36384 218.52 
L 228.49776 220.38 
L 228.63168 225.96 
L 228.7656 220.38 
L 228.89952 224.1 
L 229.03344 218.52 
L 229.16736 224.1 
L 229.4352 220.38 
L 229.70304 225.96 
L 229.83696 224.1 
L 229.97088 220.38 
L 230.1048 220.38 
L 230.23872 224.1 
L 230.37264 222.24 
L 230.50656 216.66 
L 230.64048 222.24 
L 230.7744 218.52 
L 230.90832 218.52 
L 231.04224 224.1 
L 231.17616 222.24 
L 231.31008 222.24 
L 231.444 224.1 
L 231.57792 218.52 
L 231.71184 222.24 
L 231.84576 218.52 
L 232.1136 218.52 
L 232.24752 220.38 
L 232.38144 225.96 
L 232.51536 222.24 
L 232.64928 225.96 
L 232.91712 222.24 
L 233.18496 216.66 
L 233.31888 216.66 
L 233.4528 218.52 
L 233.58672 225.96 
L 233.72064 216.66 
L 233.85456 222.24 
L 233.98848 222.24 
L 234.1224 224.1 
L 234.25632 224.1 
L 234.39024 220.38 
L 234.52416 222.24 
L 234.65808 225.96 
L 234.792 225.96 
L 235.19376 212.94 
L 235.32768 224.1 
L 235.4616 216.66 
L 235.59552 224.1 
L 235.72944 224.1 
L 235.86336 220.38 
L 235.99728 222.24 
L 236.1312 225.96 
L 236.26512 222.24 
L 236.39904 225.96 
L 236.53296 225.96 
L 236.66688 218.52 
L 236.8008 220.38 
L 236.93472 225.96 
L 237.06864 216.66 
L 237.33648 224.1 
L 237.60432 214.8 
L 237.73824 222.24 
L 237.87216 220.38 
L 238.00608 225.96 
L 238.14 216.66 
L 238.40784 224.1 
L 238.54176 225.96 
L 238.67568 224.1 
L 238.94352 216.66 
L 239.07744 222.24 
L 239.21136 222.24 
L 239.34528 218.52 
L 239.4792 220.38 
L 239.61312 225.96 
L 239.88096 222.24 
L 240.01488 222.24 
L 240.1488 216.66 
L 240.28272 222.24 
L 240.41664 222.24 
L 240.55056 214.8 
L 240.8184 224.1 
L 240.95232 222.24 
L 241.08624 225.96 
L 241.35408 216.66 
L 241.488 218.52 
L 241.75584 224.1 
L 241.88976 222.24 
L 242.02368 224.1 
L 242.29152 216.66 
L 242.42544 224.1 
L 242.55936 220.38 
L 242.69328 224.1 
L 242.8272 224.1 
L 242.96112 222.24 
L 243.09504 222.24 
L 243.22896 224.1 
L 243.4968 220.38 
L 243.63072 224.1 
L 243.76464 224.1 
L 243.89856 225.96 
L 244.1664 220.38 
L 244.30032 225.96 
L 244.43424 225.96 
L 244.70208 218.52 
L 244.836 218.52 
L 244.96992 220.38 
L 245.10384 224.1 
L 245.23776 224.1 
L 245.37168 222.24 
L 245.5056 216.66 
L 245.63952 224.1 
L 245.77344 220.38 
L 245.90736 225.96 
L 246.04128 220.38 
L 246.1752 220.38 
L 246.30912 224.1 
L 246.44304 222.24 
L 246.57696 214.8 
L 246.71088 225.96 
L 246.8448 222.24 
L 246.97872 224.1 
L 247.11264 222.24 
L 247.24656 216.66 
L 247.38048 222.24 
L 247.5144 220.38 
L 247.64832 220.38 
L 247.78224 218.52 
L 247.91616 222.24 
L 248.05008 222.24 
L 248.31792 225.96 
L 248.45184 220.38 
L 248.58576 224.1 
L 248.71968 224.1 
L 248.8536 220.38 
L 248.98752 224.1 
L 249.12144 218.52 
L 249.25536 224.1 
L 249.38928 224.1 
L 249.5232 222.24 
L 249.65712 214.8 
L 249.92496 222.24 
L 250.1928 218.52 
L 250.32672 224.1 
L 250.46064 222.24 
L 250.59456 224.1 
L 250.72848 220.38 
L 250.8624 225.96 
L 251.13024 222.24 
L 251.26416 222.24 
L 251.39808 218.52 
L 251.66592 224.1 
L 251.79984 220.38 
L 252.06768 224.1 
L 252.2016 222.24 
L 252.33552 222.24 
L 252.46944 214.8 
L 252.60336 224.1 
L 252.73728 224.1 
L 252.8712 225.96 
L 253.00512 216.66 
L 253.13904 222.24 
L 253.27296 218.52 
L 253.40688 225.96 
L 253.5408 222.24 
L 253.67472 222.24 
L 253.80864 220.38 
L 254.07648 220.38 
L 254.2104 224.1 
L 254.34432 218.52 
L 254.61216 222.24 
L 254.74608 222.24 
L 254.88 225.96 
L 255.14784 222.24 
L 255.28176 224.1 
L 255.41568 218.52 
L 255.68352 225.96 
L 255.81744 222.24 
L 255.95136 224.1 
L 256.2192 224.1 
L 256.35312 220.38 
L 256.48704 224.1 
L 256.62096 222.24 
L 256.75488 225.96 
L 256.8888 224.1 
L 257.15664 224.1 
L 257.29056 222.24 
L 257.5584 225.96 
L 257.82624 218.52 
L 257.96016 218.52 
L 258.09408 224.1 
L 258.228 224.1 
L 258.36192 216.66 
L 258.49584 222.24 
L 258.62976 218.52 
L 258.76368 222.24 
L 258.8976 222.24 
L 259.03152 225.96 
L 259.16544 222.24 
L 259.43328 225.96 
L 259.5672 224.1 
L 259.70112 225.96 
L 259.96896 220.38 
L 260.10288 224.1 
L 260.2368 224.1 
L 260.37072 218.52 
L 260.50464 218.52 
L 260.63856 225.96 
L 260.9064 218.52 
L 261.04032 225.96 
L 261.17424 216.66 
L 261.30816 222.24 
L 261.44208 222.24 
L 261.576 218.52 
L 261.70992 225.96 
L 261.97776 222.24 
L 262.11168 224.1 
L 262.37952 220.38 
L 262.51344 224.1 
L 262.64736 222.24 
L 262.78128 222.24 
L 262.9152 218.52 
L 263.04912 224.1 
L 263.18304 220.38 
L 263.31696 224.1 
L 263.5848 214.8 
L 263.71872 224.1 
L 263.85264 220.38 
L 263.98656 220.38 
L 264.2544 224.1 
L 264.38832 224.1 
L 264.65616 220.38 
L 264.79008 222.24 
L 264.924 225.96 
L 265.05792 225.96 
L 265.19184 222.24 
L 265.32576 224.1 
L 265.5936 224.1 
L 265.72752 225.96 
L 265.86144 220.38 
L 265.99536 225.96 
L 266.12928 224.1 
L 266.2632 225.96 
L 266.39712 225.96 
L 266.53104 224.1 
L 266.66496 224.1 
L 266.79888 225.96 
L 266.9328 222.24 
L 267.06672 222.24 
L 267.20064 220.38 
L 267.33456 224.1 
L 267.46848 218.52 
L 267.73632 225.96 
L 267.87024 225.96 
L 268.00416 224.1 
L 268.13808 224.1 
L 268.272 225.96 
L 268.40592 222.24 
L 268.53984 224.1 
L 268.67376 216.66 
L 268.80768 222.24 
L 268.9416 220.38 
L 269.34336 225.96 
L 269.47728 220.38 
L 269.6112 224.1 
L 269.74512 222.24 
L 269.87904 218.52 
L 270.01296 222.24 
L 270.14688 220.38 
L 270.2808 224.1 
L 270.41472 222.24 
L 270.54864 222.24 
L 270.68256 225.96 
L 270.81648 222.24 
L 270.9504 222.24 
L 271.08432 220.38 
L 271.21824 224.1 
L 271.48608 216.66 
L 271.62 225.96 
L 271.75392 220.38 
L 271.88784 222.24 
L 272.02176 222.24 
L 272.15568 218.52 
L 272.42352 224.1 
L 272.55744 222.24 
L 272.69136 216.66 
L 272.82528 222.24 
L 272.9592 222.24 
L 273.09312 220.38 
L 273.22704 225.96 
L 273.36096 222.24 
L 273.49488 222.24 
L 273.6288 225.96 
L 273.76272 218.52 
L 274.03056 222.24 
L 274.16448 220.38 
L 274.2984 220.38 
L 274.43232 216.66 
L 274.56624 220.38 
L 274.83408 220.38 
L 274.968 218.52 
L 275.10192 218.52 
L 275.23584 220.38 
L 275.36976 225.96 
L 275.50368 218.52 
L 275.6376 222.24 
L 275.77152 218.52 
L 275.90544 224.1 
L 276.03936 222.24 
L 276.17328 222.24 
L 276.3072 218.52 
L 276.44112 222.24 
L 276.57504 220.38 
L 276.84288 224.1 
L 276.9768 220.38 
L 277.11072 220.38 
L 277.24464 218.52 
L 277.37856 220.38 
L 277.6464 220.38 
L 277.78032 216.66 
L 277.91424 216.66 
L 278.04816 224.1 
L 278.18208 222.24 
L 278.316 224.1 
L 278.58384 218.52 
L 278.71776 222.24 
L 278.9856 222.24 
L 279.11952 216.66 
L 279.25344 220.38 
L 279.38736 220.38 
L 279.52128 216.66 
L 279.6552 220.38 
L 279.78912 218.52 
L 279.92304 211.08 
L 280.19088 224.1 
L 280.3248 220.38 
L 280.45872 222.24 
L 280.59264 220.38 
L 280.9944 220.38 
L 281.12832 214.8 
L 281.26224 225.96 
L 281.39616 222.24 
L 281.79792 222.24 
L 281.93184 220.38 
L 282.06576 216.66 
L 282.19968 220.38 
L 282.3336 218.52 
L 282.46752 220.38 
L 282.60144 224.1 
L 282.73536 222.24 
L 282.86928 222.24 
L 283.0032 216.66 
L 283.13712 220.38 
L 283.27104 218.52 
L 283.40496 222.24 
L 283.53888 222.24 
L 283.6728 218.52 
L 283.80672 220.38 
L 283.94064 224.1 
L 284.07456 222.24 
L 284.20848 218.52 
L 284.3424 218.52 
L 284.47632 216.66 
L 284.61024 220.38 
L 284.74416 218.52 
L 284.87808 214.8 
L 285.012 222.24 
L 285.14592 216.66 
L 285.27984 222.24 
L 285.41376 220.38 
L 285.54768 211.08 
L 285.6816 218.52 
L 285.81552 214.8 
L 285.94944 222.24 
L 286.08336 220.38 
L 286.21728 220.38 
L 286.3512 216.66 
L 286.48512 222.24 
L 286.61904 220.38 
L 286.75296 214.8 
L 287.0208 218.52 
L 287.15472 218.52 
L 287.28864 224.1 
L 287.42256 216.66 
L 287.55648 220.38 
L 287.6904 218.52 
L 287.95824 224.1 
L 288.22608 218.52 
L 288.36 218.52 
L 288.49392 212.94 
L 288.76176 224.1 
L 288.89568 214.8 
L 289.0296 214.8 
L 289.16352 224.1 
L 289.43136 212.94 
L 289.56528 212.94 
L 289.6992 216.66 
L 289.83312 214.8 
L 289.96704 216.66 
L 290.10096 222.24 
L 290.3688 216.66 
L 290.50272 216.66 
L 290.77056 224.1 
L 291.0384 211.08 
L 291.17232 222.24 
L 291.30624 209.22 
L 291.57408 220.38 
L 291.708 218.52 
L 291.97584 218.52 
L 292.10976 212.94 
L 292.24368 216.66 
L 292.3776 214.8 
L 292.51152 218.52 
L 292.64544 216.66 
L 292.77936 212.94 
L 292.91328 218.52 
L 293.0472 203.64 
L 293.31504 220.38 
L 293.44896 220.38 
L 293.58288 207.36 
L 293.7168 209.22 
L 293.85072 216.66 
L 293.98464 216.66 
L 294.11856 218.52 
L 294.25248 209.22 
L 294.3864 218.52 
L 294.52032 218.52 
L 294.65424 216.66 
L 294.78816 212.94 
L 294.92208 216.66 
L 295.056 212.94 
L 295.32384 222.24 
L 295.45776 220.38 
L 295.59168 224.1 
L 295.7256 222.24 
L 295.85952 216.66 
L 296.12736 220.38 
L 296.26128 212.94 
L 296.3952 212.94 
L 296.52912 211.08 
L 296.66304 220.38 
L 296.79696 214.8 
L 296.93088 218.52 
L 297.0648 218.52 
L 297.19872 212.94 
L 297.33264 216.66 
L 297.46656 212.94 
L 297.60048 214.8 
L 297.7344 211.08 
L 297.86832 220.38 
L 298.00224 214.8 
L 298.27008 222.24 
L 298.404 218.52 
L 298.53792 220.38 
L 298.67184 216.66 
L 298.80576 222.24 
L 298.93968 218.52 
L 299.0736 218.52 
L 299.20752 222.24 
L 299.47536 214.8 
L 299.60928 224.1 
L 299.7432 224.1 
L 299.87712 222.24 
L 300.01104 218.52 
L 300.14496 222.24 
L 300.27888 220.38 
L 300.4128 211.08 
L 300.54672 225.96 
L 300.68064 212.94 
L 300.81456 216.66 
L 300.94848 211.08 
L 301.21632 218.52 
L 301.35024 212.94 
L 301.48416 220.38 
L 301.61808 212.94 
L 301.752 224.1 
L 301.88592 220.38 
L 302.01984 212.94 
L 302.15376 212.94 
L 302.4216 224.1 
L 302.55552 220.38 
L 302.68944 220.38 
L 302.82336 214.8 
L 302.95728 222.24 
L 303.0912 216.66 
L 303.35904 224.1 
L 303.62688 218.52 
L 303.7608 220.38 
L 303.89472 224.1 
L 304.02864 222.24 
L 304.16256 214.8 
L 304.29648 216.66 
L 304.4304 222.24 
L 304.56432 209.22 
L 304.69824 220.38 
L 304.83216 218.52 
L 304.96608 222.24 
L 305.1 216.66 
L 305.23392 222.24 
L 305.36784 220.38 
L 305.50176 222.24 
L 305.63568 216.66 
L 305.7696 218.52 
L 306.03744 209.22 
L 306.17136 209.22 
L 306.30528 216.66 
L 306.4392 214.8 
L 306.57312 205.5 
L 306.97488 222.24 
L 307.1088 218.52 
L 307.24272 218.52 
L 307.37664 220.38 
L 307.51056 218.52 
L 307.64448 218.52 
L 307.7784 220.38 
L 307.91232 218.52 
L 308.18016 218.52 
L 308.31408 212.94 
L 308.448 214.8 
L 308.58192 214.8 
L 308.71584 211.08 
L 308.84976 218.52 
L 309.1176 212.94 
L 309.25152 218.52 
L 309.38544 214.8 
L 309.51936 218.52 
L 309.65328 216.66 
L 309.7872 220.38 
L 309.92112 218.52 
L 310.05504 220.38 
L 310.18896 212.94 
L 310.32288 214.8 
L 310.4568 214.8 
L 310.59072 220.38 
L 310.72464 218.52 
L 310.85856 220.38 
L 311.1264 211.08 
L 311.26032 218.52 
L 311.39424 218.52 
L 311.52816 214.8 
L 311.66208 220.38 
L 311.796 214.8 
L 312.06384 222.24 
L 312.19776 214.8 
L 312.33168 218.52 
L 312.4656 216.66 
L 312.59952 218.52 
L 312.73344 216.66 
L 312.86736 212.94 
L 313.1352 216.66 
L 313.26912 220.38 
L 313.40304 214.8 
L 313.53696 218.52 
L 313.67088 211.08 
L 313.8048 222.24 
L 313.93872 222.24 
L 314.07264 216.66 
L 314.20656 220.38 
L 314.4744 220.38 
L 314.60832 218.52 
L 314.74224 218.52 
L 314.87616 222.24 
L 315.01008 214.8 
L 315.144 214.8 
L 315.27792 212.94 
L 315.41184 222.24 
L 315.54576 222.24 
L 315.67968 214.8 
L 315.8136 218.52 
L 315.94752 216.66 
L 316.08144 220.38 
L 316.21536 216.66 
L 316.34928 218.52 
L 316.4832 212.94 
L 316.61712 222.24 
L 316.75104 214.8 
L 316.88496 222.24 
L 317.01888 220.38 
L 317.28672 214.8 
L 317.42064 222.24 
L 317.55456 212.94 
L 317.68848 212.94 
L 317.8224 214.8 
L 317.95632 220.38 
L 318.22416 212.94 
L 318.62592 218.52 
L 318.75984 207.36 
L 319.02768 222.24 
L 319.1616 222.24 
L 319.42944 214.8 
L 319.69728 222.24 
L 319.8312 207.36 
L 319.96512 220.38 
L 320.09904 218.52 
L 320.23296 220.38 
L 320.36688 218.52 
L 320.63472 218.52 
L 320.76864 212.94 
L 320.90256 214.8 
L 321.03648 220.38 
L 321.1704 220.38 
L 321.30432 214.8 
L 321.43824 222.24 
L 321.57216 222.24 
L 321.70608 224.1 
L 321.84 214.8 
L 321.97392 214.8 
L 322.10784 220.38 
L 322.24176 216.66 
L 322.37568 222.24 
L 322.5096 214.8 
L 322.64352 222.24 
L 322.77744 222.24 
L 322.91136 220.38 
L 323.04528 220.38 
L 323.1792 216.66 
L 323.44704 216.66 
L 323.58096 209.22 
L 323.71488 218.52 
L 323.8488 218.52 
L 323.98272 220.38 
L 324.11664 218.52 
L 324.25056 220.38 
L 324.38448 220.38 
L 324.5184 222.24 
L 324.78624 214.8 
L 324.92016 220.38 
L 325.05408 220.38 
L 325.188 216.66 
L 325.32192 220.38 
L 325.45584 220.38 
L 325.72368 214.8 
L 325.8576 214.8 
L 325.99152 218.52 
L 326.25936 218.52 
L 326.39328 222.24 
L 326.5272 220.38 
L 326.66112 212.94 
L 326.79504 212.94 
L 327.1968 224.1 
L 327.33072 207.36 
L 327.46464 227.82 
L 327.59856 212.94 
L 327.73248 225.96 
L 327.8664 216.66 
L 328.00032 218.52 
L 328.13424 214.8 
L 328.26816 220.38 
L 328.40208 218.52 
L 328.536 218.52 
L 328.66992 216.66 
L 328.80384 220.38 
L 328.93776 214.8 
L 329.2056 222.24 
L 329.33952 216.66 
L 329.47344 224.1 
L 329.60736 222.24 
L 329.8752 222.24 
L 330.00912 220.38 
L 330.14304 212.94 
L 330.27696 218.52 
L 330.41088 218.52 
L 330.5448 214.8 
L 330.67872 207.36 
L 330.81264 216.66 
L 330.94656 216.66 
L 331.2144 224.1 
L 331.34832 218.52 
L 331.61616 225.96 
L 331.75008 218.52 
L 331.884 224.1 
L 332.01792 220.38 
L 332.15184 222.24 
L 332.28576 222.24 
L 332.41968 214.8 
L 332.5536 214.8 
L 332.68752 225.96 
L 332.95536 216.66 
L 333.08928 214.8 
L 333.2232 214.8 
L 333.35712 224.1 
L 333.49104 222.24 
L 333.62496 222.24 
L 333.8928 216.66 
L 334.02672 218.52 
L 334.29456 214.8 
L 334.5624 222.24 
L 334.83024 218.52 
L 334.83024 218.52 
" style="fill:none;stroke:#0000ff;stroke-linecap:square;stroke-width:1.5;"/>
   </g>
   <g id="line2d_2">
    <path clip-path="url(#pffdc628cd6)" d="M 54 75.3 
L 54.13392 95.76 
L 54.26784 105.06 
L 54.40176 105.06 
L 54.6696 108.78 
L 54.93744 119.94 
L 55.20528 123.66 
L 55.3392 123.66 
L 55.87488 136.68 
L 56.0088 136.68 
L 56.14272 142.26 
L 56.27664 142.26 
L 56.54448 147.84 
L 56.6784 149.7 
L 56.81232 149.7 
L 56.94624 151.56 
L 57.21408 151.56 
L 57.348 153.42 
L 57.74976 153.42 
L 57.88368 155.28 
L 58.15152 155.28 
L 58.28544 160.86 
L 58.6872 160.86 
L 58.82112 164.58 
L 59.08896 164.58 
L 59.22288 168.3 
L 59.62464 168.3 
L 59.75856 170.16 
L 59.89248 173.88 
L 60.56208 173.88 
L 60.696 175.74 
L 60.82992 175.74 
L 60.96384 177.6 
L 62.83872 177.6 
L 62.97264 179.46 
L 63.50832 179.46 
L 63.64224 181.32 
L 64.31184 181.32 
L 64.44576 183.18 
L 64.57968 183.18 
L 64.7136 186.9 
L 65.11536 186.9 
L 65.24928 188.76 
L 73.15056 188.76 
L 73.28448 190.62 
L 74.7576 190.62 
L 74.89152 192.48 
L 82.39104 192.48 
L 82.52496 194.34 
L 92.30112 194.34 
L 92.43504 196.2 
L 94.44384 196.2 
L 94.57776 198.06 
L 97.39008 198.06 
L 97.524 201.78 
L 113.05872 201.78 
L 113.19264 203.64 
L 131.13792 203.64 
L 131.27184 205.5 
L 133.28064 205.5 
L 133.41456 207.36 
L 133.54848 207.36 
L 133.6824 209.22 
L 134.08416 209.22 
L 134.21808 211.08 
L 136.22688 211.08 
L 136.3608 212.94 
L 141.7176 212.94 
L 141.85152 216.66 
L 160.73424 216.66 
L 160.86816 218.52 
L 165.42144 218.52 
L 165.55536 220.38 
L 177.2064 220.38 
L 177.34032 222.24 
L 187.11648 222.24 
L 187.2504 224.1 
L 224.748 224.1 
L 224.88192 225.96 
L 296.26128 225.96 
L 296.3952 227.82 
L 334.83024 227.82 
L 334.83024 227.82 
" style="fill:none;stroke:#008000;stroke-linecap:square;stroke-width:2.0;"/>
   </g>
   <g id="patch_3">
    <path d="M 54 252 
L 388.8 252 
" style="fill:none;stroke:#000000;stroke-linecap:square;stroke-linejoin:miter;"/>
   </g>
   <g id="patch_4">
    <path d="M 54 252 
L 54 28.8 
" style="fill:none;stroke:#000000;stroke-linecap:square;stroke-linejoin:miter;"/>
   </g>
   <g id="patch_5">
    <path d="M 388.8 252 
L 388.8 28.8 
" style="fill:none;stroke:#000000;stroke-linecap:square;stroke-linejoin:miter;"/>
   </g>
   <g id="patch_6">
    <path d="M 54 28.8 
L 388.8 28.8 
" style="fill:none;stroke:#000000;stroke-linecap:square;stroke-linejoin:miter;"/>
   </g>
   <g id="matplotlib.axis_1">
    <g id="xtick_1">
     <g id="line2d_3">
      <path clip-path="url(#pffdc628cd6)" d="M 54 252 
L 54 28.8 
" style="fill:none;stroke:#000000;stroke-dasharray:1.000000,3.000000;stroke-dashoffset:0.0;stroke-width:0.5;"/>
     </g>
     <g id="line2d_4">
      <defs>
       <path d="M 0 0 
L 0 -4 
" id="m6cad9096fa" style="stroke:#000000;stroke-width:0.5;"/>
      </defs>
      <g>
       <use style="stroke:#000000;stroke-width:0.5;" x="54.0" xlink:href="#m6cad9096fa" y="252.0"/>
      </g>
     </g>
     <g id="line2d_5">
      <defs>
       <path d="M 0 0 
L 0 4 
" id="mf75266dc8f" style="stroke:#000000;stroke-width:0.5;"/>
      </defs>
      <g>
       <use style="stroke:#000000;stroke-width:0.5;" x="54.0" xlink:href="#mf75266dc8f" y="28.80000000000001"/>
      </g>
     </g>
     <g id="text_1">
      <!-- 0 -->
      <defs>
       <path d="M 31.78125 66.40625 
Q 24.171875 66.40625 20.328125 58.90625 
Q 16.5 51.421875 16.5 36.375 
Q 16.5 21.390625 20.328125 13.890625 
Q 24.171875 6.390625 31.78125 6.390625 
Q 39.453125 6.390625 43.28125 13.890625 
Q 47.125 21.390625 47.125 36.375 
Q 47.125 51.421875 43.28125 58.90625 
Q 39.453125 66.40625 31.78125 66.40625 
M 31.78125 74.21875 
Q 44.046875 74.21875 50.515625 64.515625 
Q 56.984375 54.828125 56.984375 36.375 
Q 56.984375 17.96875 50.515625 8.265625 
Q 44.046875 -1.421875 31.78125 -1.421875 
Q 19.53125 -1.421875 13.0625 8.265625 
Q 6.59375 17.96875 6.59375 36.375 
Q 6.59375 54.828125 13.0625 64.515625 
Q 19.53125 74.21875 31.78125 74.21875 
" id="BitstreamVeraSans-Roman-30"/>
      </defs>
      <g transform="translate(50.81875 263.5984375)scale(0.1 -0.1)">
       <use xlink:href="#BitstreamVeraSans-Roman-30"/>
      </g>
     </g>
    </g>
    <g id="xtick_2">
     <g id="line2d_6">
      <path clip-path="url(#pffdc628cd6)" d="M 120.96 252 
L 120.96 28.8 
" style="fill:none;stroke:#000000;stroke-dasharray:1.000000,3.000000;stroke-dashoffset:0.0;stroke-width:0.5;"/>
     </g>
     <g id="line2d_7">
      <g>
       <use style="stroke:#000000;stroke-width:0.5;" x="120.96000000000001" xlink:href="#m6cad9096fa" y="252.0"/>
      </g>
     </g>
     <g id="line2d_8">
      <g>
       <use style="stroke:#000000;stroke-width:0.5;" x="120.96000000000001" xlink:href="#mf75266dc8f" y="28.80000000000001"/>
      </g>
     </g>
     <g id="text_2">
      <!-- 500 -->
      <defs>
       <path d="M 10.796875 72.90625 
L 49.515625 72.90625 
L 49.515625 64.59375 
L 19.828125 64.59375 
L 19.828125 46.734375 
Q 21.96875 47.46875 24.109375 47.828125 
Q 26.265625 48.1875 28.421875 48.1875 
Q 40.625 48.1875 47.75 41.5 
Q 54.890625 34.8125 54.890625 23.390625 
Q 54.890625 11.625 47.5625 5.09375 
Q 40.234375 -1.421875 26.90625 -1.421875 
Q 22.3125 -1.421875 17.546875 -0.640625 
Q 12.796875 0.140625 7.71875 1.703125 
L 7.71875 11.625 
Q 12.109375 9.234375 16.796875 8.0625 
Q 21.484375 6.890625 26.703125 6.890625 
Q 35.15625 6.890625 40.078125 11.328125 
Q 45.015625 15.765625 45.015625 23.390625 
Q 45.015625 31 40.078125 35.4375 
Q 35.15625 39.890625 26.703125 39.890625 
Q 22.75 39.890625 18.8125 39.015625 
Q 14.890625 38.140625 10.796875 36.28125 
z
" id="BitstreamVeraSans-Roman-35"/>
      </defs>
      <g transform="translate(111.41625 263.5984375)scale(0.1 -0.1)">
       <use xlink:href="#BitstreamVeraSans-Roman-35"/>
       <use x="63.623046875" xlink:href="#BitstreamVeraSans-Roman-30"/>
       <use x="127.24609375" xlink:href="#BitstreamVeraSans-Roman-30"/>
      </g>
     </g>
    </g>
    <g id="xtick_3">
     <g id="line2d_9">
      <path clip-path="url(#pffdc628cd6)" d="M 187.92 252 
L 187.92 28.8 
" style="fill:none;stroke:#000000;stroke-dasharray:1.000000,3.000000;stroke-dashoffset:0.0;stroke-width:0.5;"/>
     </g>
     <g id="line2d_10">
      <g>
       <use style="stroke:#000000;stroke-width:0.5;" x="187.92000000000002" xlink:href="#m6cad9096fa" y="252.0"/>
      </g>
     </g>
     <g id="line2d_11">
      <g>
       <use style="stroke:#000000;stroke-width:0.5;" x="187.92000000000002" xlink:href="#mf75266dc8f" y="28.80000000000001"/>
      </g>
     </g>
     <g id="text_3">
      <!-- 1000 -->
      <defs>
       <path d="M 12.40625 8.296875 
L 28.515625 8.296875 
L 28.515625 63.921875 
L 10.984375 60.40625 
L 10.984375 69.390625 
L 28.421875 72.90625 
L 38.28125 72.90625 
L 38.28125 8.296875 
L 54.390625 8.296875 
L 54.390625 0 
L 12.40625 0 
z
" id="BitstreamVeraSans-Roman-31"/>
      </defs>
      <g transform="translate(175.19500000000002 263.5984375)scale(0.1 -0.1)">
       <use xlink:href="#BitstreamVeraSans-Roman-31"/>
       <use x="63.623046875" xlink:href="#BitstreamVeraSans-Roman-30"/>
       <use x="127.24609375" xlink:href="#BitstreamVeraSans-Roman-30"/>
       <use x="190.869140625" xlink:href="#BitstreamVeraSans-Roman-30"/>
      </g>
     </g>
    </g>
    <g id="xtick_4">
     <g id="line2d_12">
      <path clip-path="url(#pffdc628cd6)" d="M 254.88 252 
L 254.88 28.8 
" style="fill:none;stroke:#000000;stroke-dasharray:1.000000,3.000000;stroke-dashoffset:0.0;stroke-width:0.5;"/>
     </g>
     <g id="line2d_13">
      <g>
       <use style="stroke:#000000;stroke-width:0.5;" x="254.88000000000002" xlink:href="#m6cad9096fa" y="252.0"/>
      </g>
     </g>
     <g id="line2d_14">
      <g>
       <use style="stroke:#000000;stroke-width:0.5;" x="254.88000000000002" xlink:href="#mf75266dc8f" y="28.80000000000001"/>
      </g>
     </g>
     <g id="text_4">
      <!-- 1500 -->
      <g transform="translate(242.15500000000003 263.5984375)scale(0.1 -0.1)">
       <use xlink:href="#BitstreamVeraSans-Roman-31"/>
       <use x="63.623046875" xlink:href="#BitstreamVeraSans-Roman-35"/>
       <use x="127.24609375" xlink:href="#BitstreamVeraSans-Roman-30"/>
       <use x="190.869140625" xlink:href="#BitstreamVeraSans-Roman-30"/>
      </g>
     </g>
    </g>
    <g id="xtick_5">
     <g id="line2d_15">
      <path clip-path="url(#pffdc628cd6)" d="M 321.84 252 
L 321.84 28.8 
" style="fill:none;stroke:#000000;stroke-dasharray:1.000000,3.000000;stroke-dashoffset:0.0;stroke-width:0.5;"/>
     </g>
     <g id="line2d_16">
      <g>
       <use style="stroke:#000000;stroke-width:0.5;" x="321.84000000000003" xlink:href="#m6cad9096fa" y="252.0"/>
      </g>
     </g>
     <g id="line2d_17">
      <g>
       <use style="stroke:#000000;stroke-width:0.5;" x="321.84000000000003" xlink:href="#mf75266dc8f" y="28.80000000000001"/>
      </g>
     </g>
     <g id="text_5">
      <!-- 2000 -->
      <defs>
       <path d="M 19.1875 8.296875 
L 53.609375 8.296875 
L 53.609375 0 
L 7.328125 0 
L 7.328125 8.296875 
Q 12.9375 14.109375 22.625 23.890625 
Q 32.328125 33.6875 34.8125 36.53125 
Q 39.546875 41.84375 41.421875 45.53125 
Q 43.3125 49.21875 43.3125 52.78125 
Q 43.3125 58.59375 39.234375 62.25 
Q 35.15625 65.921875 28.609375 65.921875 
Q 23.96875 65.921875 18.8125 64.3125 
Q 13.671875 62.703125 7.8125 59.421875 
L 7.8125 69.390625 
Q 13.765625 71.78125 18.9375 73 
Q 24.125 74.21875 28.421875 74.21875 
Q 39.75 74.21875 46.484375 68.546875 
Q 53.21875 62.890625 53.21875 53.421875 
Q 53.21875 48.921875 51.53125 44.890625 
Q 49.859375 40.875 45.40625 35.40625 
Q 44.1875 33.984375 37.640625 27.21875 
Q 31.109375 20.453125 19.1875 8.296875 
" id="BitstreamVeraSans-Roman-32"/>
      </defs>
      <g transform="translate(309.115 263.5984375)scale(0.1 -0.1)">
       <use xlink:href="#BitstreamVeraSans-Roman-32"/>
       <use x="63.623046875" xlink:href="#BitstreamVeraSans-Roman-30"/>
       <use x="127.24609375" xlink:href="#BitstreamVeraSans-Roman-30"/>
       <use x="190.869140625" xlink:href="#BitstreamVeraSans-Roman-30"/>
      </g>
     </g>
    </g>
    <g id="xtick_6">
     <g id="line2d_18">
      <path clip-path="url(#pffdc628cd6)" d="M 388.8 252 
L 388.8 28.8 
" style="fill:none;stroke:#000000;stroke-dasharray:1.000000,3.000000;stroke-dashoffset:0.0;stroke-width:0.5;"/>
     </g>
     <g id="line2d_19">
      <g>
       <use style="stroke:#000000;stroke-width:0.5;" x="388.8" xlink:href="#m6cad9096fa" y="252.0"/>
      </g>
     </g>
     <g id="line2d_20">
      <g>
       <use style="stroke:#000000;stroke-width:0.5;" x="388.8" xlink:href="#mf75266dc8f" y="28.80000000000001"/>
      </g>
     </g>
     <g id="text_6">
      <!-- 2500 -->
      <g transform="translate(376.075 263.5984375)scale(0.1 -0.1)">
       <use xlink:href="#BitstreamVeraSans-Roman-32"/>
       <use x="63.623046875" xlink:href="#BitstreamVeraSans-Roman-35"/>
       <use x="127.24609375" xlink:href="#BitstreamVeraSans-Roman-30"/>
       <use x="190.869140625" xlink:href="#BitstreamVeraSans-Roman-30"/>
      </g>
     </g>
    </g>
    <g id="text_7">
     <!-- Iteration -->
     <defs>
      <path d="M 56.203125 29.59375 
L 56.203125 25.203125 
L 14.890625 25.203125 
Q 15.484375 15.921875 20.484375 11.0625 
Q 25.484375 6.203125 34.421875 6.203125 
Q 39.59375 6.203125 44.453125 7.46875 
Q 49.3125 8.734375 54.109375 11.28125 
L 54.109375 2.78125 
Q 49.265625 0.734375 44.1875 -0.34375 
Q 39.109375 -1.421875 33.890625 -1.421875 
Q 20.796875 -1.421875 13.15625 6.1875 
Q 5.515625 13.8125 5.515625 26.8125 
Q 5.515625 40.234375 12.765625 48.109375 
Q 20.015625 56 32.328125 56 
Q 43.359375 56 49.78125 48.890625 
Q 56.203125 41.796875 56.203125 29.59375 
M 47.21875 32.234375 
Q 47.125 39.59375 43.09375 43.984375 
Q 39.0625 48.390625 32.421875 48.390625 
Q 24.90625 48.390625 20.390625 44.140625 
Q 15.875 39.890625 15.1875 32.171875 
z
" id="BitstreamVeraSans-Roman-65"/>
      <path d="M 9.8125 72.90625 
L 19.671875 72.90625 
L 19.671875 0 
L 9.8125 0 
z
" id="BitstreamVeraSans-Roman-49"/>
      <path d="M 41.109375 46.296875 
Q 39.59375 47.171875 37.8125 47.578125 
Q 36.03125 48 33.890625 48 
Q 26.265625 48 22.1875 43.046875 
Q 18.109375 38.09375 18.109375 28.8125 
L 18.109375 0 
L 9.078125 0 
L 9.078125 54.6875 
L 18.109375 54.6875 
L 18.109375 46.1875 
Q 20.953125 51.171875 25.484375 53.578125 
Q 30.03125 56 36.53125 56 
Q 37.453125 56 38.578125 55.875 
Q 39.703125 55.765625 41.0625 55.515625 
z
" id="BitstreamVeraSans-Roman-72"/>
      <path d="M 18.3125 70.21875 
L 18.3125 54.6875 
L 36.8125 54.6875 
L 36.8125 47.703125 
L 18.3125 47.703125 
L 18.3125 18.015625 
Q 18.3125 11.328125 20.140625 9.421875 
Q 21.96875 7.515625 27.59375 7.515625 
L 36.8125 7.515625 
L 36.8125 0 
L 27.59375 0 
Q 17.1875 0 13.234375 3.875 
Q 9.28125 7.765625 9.28125 18.015625 
L 9.28125 47.703125 
L 2.6875 47.703125 
L 2.6875 54.6875 
L 9.28125 54.6875 
L 9.28125 70.21875 
z
" id="BitstreamVeraSans-Roman-74"/>
      <path d="M 34.28125 27.484375 
Q 23.390625 27.484375 19.1875 25 
Q 14.984375 22.515625 14.984375 16.5 
Q 14.984375 11.71875 18.140625 8.90625 
Q 21.296875 6.109375 26.703125 6.109375 
Q 34.1875 6.109375 38.703125 11.40625 
Q 43.21875 16.703125 43.21875 25.484375 
L 43.21875 27.484375 
z
M 52.203125 31.203125 
L 52.203125 0 
L 43.21875 0 
L 43.21875 8.296875 
Q 40.140625 3.328125 35.546875 0.953125 
Q 30.953125 -1.421875 24.3125 -1.421875 
Q 15.921875 -1.421875 10.953125 3.296875 
Q 6 8.015625 6 15.921875 
Q 6 25.140625 12.171875 29.828125 
Q 18.359375 34.515625 30.609375 34.515625 
L 43.21875 34.515625 
L 43.21875 35.40625 
Q 43.21875 41.609375 39.140625 45 
Q 35.0625 48.390625 27.6875 48.390625 
Q 23 48.390625 18.546875 47.265625 
Q 14.109375 46.140625 10.015625 43.890625 
L 10.015625 52.203125 
Q 14.9375 54.109375 19.578125 55.046875 
Q 24.21875 56 28.609375 56 
Q 40.484375 56 46.34375 49.84375 
Q 52.203125 43.703125 52.203125 31.203125 
" id="BitstreamVeraSans-Roman-61"/>
      <path d="M 9.421875 54.6875 
L 18.40625 54.6875 
L 18.40625 0 
L 9.421875 0 
z
M 9.421875 75.984375 
L 18.40625 75.984375 
L 18.40625 64.59375 
L 9.421875 64.59375 
z
" id="BitstreamVeraSans-Roman-69"/>
      <path d="M 54.890625 33.015625 
L 54.890625 0 
L 45.90625 0 
L 45.90625 32.71875 
Q 45.90625 40.484375 42.875 44.328125 
Q 39.84375 48.1875 33.796875 48.1875 
Q 26.515625 48.1875 22.3125 43.546875 
Q 18.109375 38.921875 18.109375 30.90625 
L 18.109375 0 
L 9.078125 0 
L 9.078125 54.6875 
L 18.109375 54.6875 
L 18.109375 46.1875 
Q 21.34375 51.125 25.703125 53.5625 
Q 30.078125 56 35.796875 56 
Q 45.21875 56 50.046875 50.171875 
Q 54.890625 44.34375 54.890625 33.015625 
" id="BitstreamVeraSans-Roman-6e"/>
      <path d="M 30.609375 48.390625 
Q 23.390625 48.390625 19.1875 42.75 
Q 14.984375 37.109375 14.984375 27.296875 
Q 14.984375 17.484375 19.15625 11.84375 
Q 23.34375 6.203125 30.609375 6.203125 
Q 37.796875 6.203125 41.984375 11.859375 
Q 46.1875 17.53125 46.1875 27.296875 
Q 46.1875 37.015625 41.984375 42.703125 
Q 37.796875 48.390625 30.609375 48.390625 
M 30.609375 56 
Q 42.328125 56 49.015625 48.375 
Q 55.71875 40.765625 55.71875 27.296875 
Q 55.71875 13.875 49.015625 6.21875 
Q 42.328125 -1.421875 30.609375 -1.421875 
Q 18.84375 -1.421875 12.171875 6.21875 
Q 5.515625 13.875 5.515625 27.296875 
Q 5.515625 40.765625 12.171875 48.375 
Q 18.84375 56 30.609375 56 
" id="BitstreamVeraSans-Roman-6f"/>
     </defs>
     <g transform="translate(200.19140625 278.2765625)scale(0.1 -0.1)">
      <use xlink:href="#BitstreamVeraSans-Roman-49"/>
      <use x="29.4921875" xlink:href="#BitstreamVeraSans-Roman-74"/>
      <use x="68.701171875" xlink:href="#BitstreamVeraSans-Roman-65"/>
      <use x="130.224609375" xlink:href="#BitstreamVeraSans-Roman-72"/>
      <use x="171.337890625" xlink:href="#BitstreamVeraSans-Roman-61"/>
      <use x="232.6171875" xlink:href="#BitstreamVeraSans-Roman-74"/>
      <use x="271.826171875" xlink:href="#BitstreamVeraSans-Roman-69"/>
      <use x="299.609375" xlink:href="#BitstreamVeraSans-Roman-6f"/>
      <use x="360.791015625" xlink:href="#BitstreamVeraSans-Roman-6e"/>
     </g>
    </g>
   </g>
   <g id="matplotlib.axis_2">
    <g id="ytick_1">
     <g id="line2d_21">
      <path clip-path="url(#pffdc628cd6)" d="M 54 252 
L 388.8 252 
" style="fill:none;stroke:#000000;stroke-dasharray:1.000000,3.000000;stroke-dashoffset:0.0;stroke-width:0.5;"/>
     </g>
     <g id="line2d_22">
      <defs>
       <path d="M 0 0 
L 4 0 
" id="mf49a412449" style="stroke:#000000;stroke-width:0.5;"/>
      </defs>
      <g>
       <use style="stroke:#000000;stroke-width:0.5;" x="54.0" xlink:href="#mf49a412449" y="252.0"/>
      </g>
     </g>
     <g id="line2d_23">
      <defs>
       <path d="M 0 0 
L -4 0 
" id="mfdbbc5e1e5" style="stroke:#000000;stroke-width:0.5;"/>
      </defs>
      <g>
       <use style="stroke:#000000;stroke-width:0.5;" x="388.8" xlink:href="#mfdbbc5e1e5" y="252.0"/>
      </g>
     </g>
     <g id="text_8">
      <!-- 40 -->
      <defs>
       <path d="M 37.796875 64.3125 
L 12.890625 25.390625 
L 37.796875 25.390625 
z
M 35.203125 72.90625 
L 47.609375 72.90625 
L 47.609375 25.390625 
L 58.015625 25.390625 
L 58.015625 17.1875 
L 47.609375 17.1875 
L 47.609375 0 
L 37.796875 0 
L 37.796875 17.1875 
L 4.890625 17.1875 
L 4.890625 26.703125 
z
" id="BitstreamVeraSans-Roman-34"/>
      </defs>
      <g transform="translate(37.275 254.759375)scale(0.1 -0.1)">
       <use xlink:href="#BitstreamVeraSans-Roman-34"/>
       <use x="63.623046875" xlink:href="#BitstreamVeraSans-Roman-30"/>
      </g>
     </g>
    </g>
    <g id="ytick_2">
     <g id="line2d_24">
      <path clip-path="url(#pffdc628cd6)" d="M 54 214.8 
L 388.8 214.8 
" style="fill:none;stroke:#000000;stroke-dasharray:1.000000,3.000000;stroke-dashoffset:0.0;stroke-width:0.5;"/>
     </g>
     <g id="line2d_25">
      <g>
       <use style="stroke:#000000;stroke-width:0.5;" x="54.0" xlink:href="#mf49a412449" y="214.79999999999998"/>
      </g>
     </g>
     <g id="line2d_26">
      <g>
       <use style="stroke:#000000;stroke-width:0.5;" x="388.8" xlink:href="#mfdbbc5e1e5" y="214.79999999999998"/>
      </g>
     </g>
     <g id="text_9">
      <!-- 60 -->
      <defs>
       <path d="M 33.015625 40.375 
Q 26.375 40.375 22.484375 35.828125 
Q 18.609375 31.296875 18.609375 23.390625 
Q 18.609375 15.53125 22.484375 10.953125 
Q 26.375 6.390625 33.015625 6.390625 
Q 39.65625 6.390625 43.53125 10.953125 
Q 47.40625 15.53125 47.40625 23.390625 
Q 47.40625 31.296875 43.53125 35.828125 
Q 39.65625 40.375 33.015625 40.375 
M 52.59375 71.296875 
L 52.59375 62.3125 
Q 48.875 64.0625 45.09375 64.984375 
Q 41.3125 65.921875 37.59375 65.921875 
Q 27.828125 65.921875 22.671875 59.328125 
Q 17.53125 52.734375 16.796875 39.40625 
Q 19.671875 43.65625 24.015625 45.921875 
Q 28.375 48.1875 33.59375 48.1875 
Q 44.578125 48.1875 50.953125 41.515625 
Q 57.328125 34.859375 57.328125 23.390625 
Q 57.328125 12.15625 50.6875 5.359375 
Q 44.046875 -1.421875 33.015625 -1.421875 
Q 20.359375 -1.421875 13.671875 8.265625 
Q 6.984375 17.96875 6.984375 36.375 
Q 6.984375 53.65625 15.1875 63.9375 
Q 23.390625 74.21875 37.203125 74.21875 
Q 40.921875 74.21875 44.703125 73.484375 
Q 48.484375 72.75 52.59375 71.296875 
" id="BitstreamVeraSans-Roman-36"/>
      </defs>
      <g transform="translate(37.275 217.559375)scale(0.1 -0.1)">
       <use xlink:href="#BitstreamVeraSans-Roman-36"/>
       <use x="63.623046875" xlink:href="#BitstreamVeraSans-Roman-30"/>
      </g>
     </g>
    </g>
    <g id="ytick_3">
     <g id="line2d_27">
      <path clip-path="url(#pffdc628cd6)" d="M 54 177.6 
L 388.8 177.6 
" style="fill:none;stroke:#000000;stroke-dasharray:1.000000,3.000000;stroke-dashoffset:0.0;stroke-width:0.5;"/>
     </g>
     <g id="line2d_28">
      <g>
       <use style="stroke:#000000;stroke-width:0.5;" x="54.0" xlink:href="#mf49a412449" y="177.6"/>
      </g>
     </g>
     <g id="line2d_29">
      <g>
       <use style="stroke:#000000;stroke-width:0.5;" x="388.8" xlink:href="#mfdbbc5e1e5" y="177.6"/>
      </g>
     </g>
     <g id="text_10">
      <!-- 80 -->
      <defs>
       <path d="M 31.78125 34.625 
Q 24.75 34.625 20.71875 30.859375 
Q 16.703125 27.09375 16.703125 20.515625 
Q 16.703125 13.921875 20.71875 10.15625 
Q 24.75 6.390625 31.78125 6.390625 
Q 38.8125 6.390625 42.859375 10.171875 
Q 46.921875 13.96875 46.921875 20.515625 
Q 46.921875 27.09375 42.890625 30.859375 
Q 38.875 34.625 31.78125 34.625 
M 21.921875 38.8125 
Q 15.578125 40.375 12.03125 44.71875 
Q 8.5 49.078125 8.5 55.328125 
Q 8.5 64.0625 14.71875 69.140625 
Q 20.953125 74.21875 31.78125 74.21875 
Q 42.671875 74.21875 48.875 69.140625 
Q 55.078125 64.0625 55.078125 55.328125 
Q 55.078125 49.078125 51.53125 44.71875 
Q 48 40.375 41.703125 38.8125 
Q 48.828125 37.15625 52.796875 32.3125 
Q 56.78125 27.484375 56.78125 20.515625 
Q 56.78125 9.90625 50.3125 4.234375 
Q 43.84375 -1.421875 31.78125 -1.421875 
Q 19.734375 -1.421875 13.25 4.234375 
Q 6.78125 9.90625 6.78125 20.515625 
Q 6.78125 27.484375 10.78125 32.3125 
Q 14.796875 37.15625 21.921875 38.8125 
M 18.3125 54.390625 
Q 18.3125 48.734375 21.84375 45.5625 
Q 25.390625 42.390625 31.78125 42.390625 
Q 38.140625 42.390625 41.71875 45.5625 
Q 45.3125 48.734375 45.3125 54.390625 
Q 45.3125 60.0625 41.71875 63.234375 
Q 38.140625 66.40625 31.78125 66.40625 
Q 25.390625 66.40625 21.84375 63.234375 
Q 18.3125 60.0625 18.3125 54.390625 
" id="BitstreamVeraSans-Roman-38"/>
      </defs>
      <g transform="translate(37.275 180.359375)scale(0.1 -0.1)">
       <use xlink:href="#BitstreamVeraSans-Roman-38"/>
       <use x="63.623046875" xlink:href="#BitstreamVeraSans-Roman-30"/>
      </g>
     </g>
    </g>
    <g id="ytick_4">
     <g id="line2d_30">
      <path clip-path="url(#pffdc628cd6)" d="M 54 140.4 
L 388.8 140.4 
" style="fill:none;stroke:#000000;stroke-dasharray:1.000000,3.000000;stroke-dashoffset:0.0;stroke-width:0.5;"/>
     </g>
     <g id="line2d_31">
      <g>
       <use style="stroke:#000000;stroke-width:0.5;" x="54.0" xlink:href="#mf49a412449" y="140.39999999999998"/>
      </g>
     </g>
     <g id="line2d_32">
      <g>
       <use style="stroke:#000000;stroke-width:0.5;" x="388.8" xlink:href="#mfdbbc5e1e5" y="140.39999999999998"/>
      </g>
     </g>
     <g id="text_11">
      <!-- 100 -->
      <g transform="translate(30.912499999999998 143.15937499999998)scale(0.1 -0.1)">
       <use xlink:href="#BitstreamVeraSans-Roman-31"/>
       <use x="63.623046875" xlink:href="#BitstreamVeraSans-Roman-30"/>
       <use x="127.24609375" xlink:href="#BitstreamVeraSans-Roman-30"/>
      </g>
     </g>
    </g>
    <g id="ytick_5">
     <g id="line2d_33">
      <path clip-path="url(#pffdc628cd6)" d="M 54 103.2 
L 388.8 103.2 
" style="fill:none;stroke:#000000;stroke-dasharray:1.000000,3.000000;stroke-dashoffset:0.0;stroke-width:0.5;"/>
     </g>
     <g id="line2d_34">
      <g>
       <use style="stroke:#000000;stroke-width:0.5;" x="54.0" xlink:href="#mf49a412449" y="103.19999999999999"/>
      </g>
     </g>
     <g id="line2d_35">
      <g>
       <use style="stroke:#000000;stroke-width:0.5;" x="388.8" xlink:href="#mfdbbc5e1e5" y="103.19999999999999"/>
      </g>
     </g>
     <g id="text_12">
      <!-- 120 -->
      <g transform="translate(30.912499999999998 105.959375)scale(0.1 -0.1)">
       <use xlink:href="#BitstreamVeraSans-Roman-31"/>
       <use x="63.623046875" xlink:href="#BitstreamVeraSans-Roman-32"/>
       <use x="127.24609375" xlink:href="#BitstreamVeraSans-Roman-30"/>
      </g>
     </g>
    </g>
    <g id="ytick_6">
     <g id="line2d_36">
      <path clip-path="url(#pffdc628cd6)" d="M 54 66 
L 388.8 66 
" style="fill:none;stroke:#000000;stroke-dasharray:1.000000,3.000000;stroke-dashoffset:0.0;stroke-width:0.5;"/>
     </g>
     <g id="line2d_37">
      <g>
       <use style="stroke:#000000;stroke-width:0.5;" x="54.0" xlink:href="#mf49a412449" y="66.0"/>
      </g>
     </g>
     <g id="line2d_38">
      <g>
       <use style="stroke:#000000;stroke-width:0.5;" x="388.8" xlink:href="#mfdbbc5e1e5" y="66.0"/>
      </g>
     </g>
     <g id="text_13">
      <!-- 140 -->
      <g transform="translate(30.912499999999998 68.759375)scale(0.1 -0.1)">
       <use xlink:href="#BitstreamVeraSans-Roman-31"/>
       <use x="63.623046875" xlink:href="#BitstreamVeraSans-Roman-34"/>
       <use x="127.24609375" xlink:href="#BitstreamVeraSans-Roman-30"/>
      </g>
     </g>
    </g>
    <g id="ytick_7">
     <g id="line2d_39">
      <path clip-path="url(#pffdc628cd6)" d="M 54 28.8 
L 388.8 28.8 
" style="fill:none;stroke:#000000;stroke-dasharray:1.000000,3.000000;stroke-dashoffset:0.0;stroke-width:0.5;"/>
     </g>
     <g id="line2d_40">
      <g>
       <use style="stroke:#000000;stroke-width:0.5;" x="54.0" xlink:href="#mf49a412449" y="28.80000000000001"/>
      </g>
     </g>
     <g id="line2d_41">
      <g>
       <use style="stroke:#000000;stroke-width:0.5;" x="388.8" xlink:href="#mfdbbc5e1e5" y="28.80000000000001"/>
      </g>
     </g>
     <g id="text_14">
      <!-- 160 -->
      <g transform="translate(30.912499999999998 31.55937499999999)scale(0.1 -0.1)">
       <use xlink:href="#BitstreamVeraSans-Roman-31"/>
       <use x="63.623046875" xlink:href="#BitstreamVeraSans-Roman-36"/>
       <use x="127.24609375" xlink:href="#BitstreamVeraSans-Roman-30"/>
      </g>
     </g>
    </g>
    <g id="text_15">
     <!-- Objective values -->
     <defs>
      <path d="M 48.6875 27.296875 
Q 48.6875 37.203125 44.609375 42.84375 
Q 40.53125 48.484375 33.40625 48.484375 
Q 26.265625 48.484375 22.1875 42.84375 
Q 18.109375 37.203125 18.109375 27.296875 
Q 18.109375 17.390625 22.1875 11.75 
Q 26.265625 6.109375 33.40625 6.109375 
Q 40.53125 6.109375 44.609375 11.75 
Q 48.6875 17.390625 48.6875 27.296875 
M 18.109375 46.390625 
Q 20.953125 51.265625 25.265625 53.625 
Q 29.59375 56 35.59375 56 
Q 45.5625 56 51.78125 48.09375 
Q 58.015625 40.1875 58.015625 27.296875 
Q 58.015625 14.40625 51.78125 6.484375 
Q 45.5625 -1.421875 35.59375 -1.421875 
Q 29.59375 -1.421875 25.265625 0.953125 
Q 20.953125 3.328125 18.109375 8.203125 
L 18.109375 0 
L 9.078125 0 
L 9.078125 75.984375 
L 18.109375 75.984375 
z
" id="BitstreamVeraSans-Roman-62"/>
      <path d="M 2.984375 54.6875 
L 12.5 54.6875 
L 29.59375 8.796875 
L 46.6875 54.6875 
L 56.203125 54.6875 
L 35.6875 0 
L 23.484375 0 
z
" id="BitstreamVeraSans-Roman-76"/>
      <path d="M 44.28125 53.078125 
L 44.28125 44.578125 
Q 40.484375 46.53125 36.375 47.5 
Q 32.28125 48.484375 27.875 48.484375 
Q 21.1875 48.484375 17.84375 46.4375 
Q 14.5 44.390625 14.5 40.28125 
Q 14.5 37.15625 16.890625 35.375 
Q 19.28125 33.59375 26.515625 31.984375 
L 29.59375 31.296875 
Q 39.15625 29.25 43.1875 25.515625 
Q 47.21875 21.78125 47.21875 15.09375 
Q 47.21875 7.46875 41.1875 3.015625 
Q 35.15625 -1.421875 24.609375 -1.421875 
Q 20.21875 -1.421875 15.453125 -0.5625 
Q 10.6875 0.296875 5.421875 2 
L 5.421875 11.28125 
Q 10.40625 8.6875 15.234375 7.390625 
Q 20.0625 6.109375 24.8125 6.109375 
Q 31.15625 6.109375 34.5625 8.28125 
Q 37.984375 10.453125 37.984375 14.40625 
Q 37.984375 18.0625 35.515625 20.015625 
Q 33.0625 21.96875 24.703125 23.78125 
L 21.578125 24.515625 
Q 13.234375 26.265625 9.515625 29.90625 
Q 5.8125 33.546875 5.8125 39.890625 
Q 5.8125 47.609375 11.28125 51.796875 
Q 16.75 56 26.8125 56 
Q 31.78125 56 36.171875 55.265625 
Q 40.578125 54.546875 44.28125 53.078125 
" id="BitstreamVeraSans-Roman-73"/>
      <path d="M 48.78125 52.59375 
L 48.78125 44.1875 
Q 44.96875 46.296875 41.140625 47.34375 
Q 37.3125 48.390625 33.40625 48.390625 
Q 24.65625 48.390625 19.8125 42.84375 
Q 14.984375 37.3125 14.984375 27.296875 
Q 14.984375 17.28125 19.8125 11.734375 
Q 24.65625 6.203125 33.40625 6.203125 
Q 37.3125 6.203125 41.140625 7.25 
Q 44.96875 8.296875 48.78125 10.40625 
L 48.78125 2.09375 
Q 45.015625 0.34375 40.984375 -0.53125 
Q 36.96875 -1.421875 32.421875 -1.421875 
Q 20.0625 -1.421875 12.78125 6.34375 
Q 5.515625 14.109375 5.515625 27.296875 
Q 5.515625 40.671875 12.859375 48.328125 
Q 20.21875 56 33.015625 56 
Q 37.15625 56 41.109375 55.140625 
Q 45.0625 54.296875 48.78125 52.59375 
" id="BitstreamVeraSans-Roman-63"/>
      <path d="M 8.5 21.578125 
L 8.5 54.6875 
L 17.484375 54.6875 
L 17.484375 21.921875 
Q 17.484375 14.15625 20.5 10.265625 
Q 23.53125 6.390625 29.59375 6.390625 
Q 36.859375 6.390625 41.078125 11.03125 
Q 45.3125 15.671875 45.3125 23.6875 
L 45.3125 54.6875 
L 54.296875 54.6875 
L 54.296875 0 
L 45.3125 0 
L 45.3125 8.40625 
Q 42.046875 3.421875 37.71875 1 
Q 33.40625 -1.421875 27.6875 -1.421875 
Q 18.265625 -1.421875 13.375 4.4375 
Q 8.5 10.296875 8.5 21.578125 
" id="BitstreamVeraSans-Roman-75"/>
      <path d="M 9.421875 75.984375 
L 18.40625 75.984375 
L 18.40625 0 
L 9.421875 0 
z
" id="BitstreamVeraSans-Roman-6c"/>
      <path id="BitstreamVeraSans-Roman-20"/>
      <path d="M 9.421875 54.6875 
L 18.40625 54.6875 
L 18.40625 -0.984375 
Q 18.40625 -11.421875 14.421875 -16.109375 
Q 10.453125 -20.796875 1.609375 -20.796875 
L -1.8125 -20.796875 
L -1.8125 -13.1875 
L 0.59375 -13.1875 
Q 5.71875 -13.1875 7.5625 -10.8125 
Q 9.421875 -8.453125 9.421875 -0.984375 
z
M 9.421875 75.984375 
L 18.40625 75.984375 
L 18.40625 64.59375 
L 9.421875 64.59375 
z
" id="BitstreamVeraSans-Roman-6a"/>
      <path d="M 39.40625 66.21875 
Q 28.65625 66.21875 22.328125 58.203125 
Q 16.015625 50.203125 16.015625 36.375 
Q 16.015625 22.609375 22.328125 14.59375 
Q 28.65625 6.59375 39.40625 6.59375 
Q 50.140625 6.59375 56.421875 14.59375 
Q 62.703125 22.609375 62.703125 36.375 
Q 62.703125 50.203125 56.421875 58.203125 
Q 50.140625 66.21875 39.40625 66.21875 
M 39.40625 74.21875 
Q 54.734375 74.21875 63.90625 63.9375 
Q 73.09375 53.65625 73.09375 36.375 
Q 73.09375 19.140625 63.90625 8.859375 
Q 54.734375 -1.421875 39.40625 -1.421875 
Q 24.03125 -1.421875 14.8125 8.828125 
Q 5.609375 19.09375 5.609375 36.375 
Q 5.609375 53.65625 14.8125 63.9375 
Q 24.03125 74.21875 39.40625 74.21875 
" id="BitstreamVeraSans-Roman-4f"/>
     </defs>
     <g transform="translate(23.832812499999996 181.96171875000002)rotate(-90.0)scale(0.1 -0.1)">
      <use xlink:href="#BitstreamVeraSans-Roman-4f"/>
      <use x="78.7109375" xlink:href="#BitstreamVeraSans-Roman-62"/>
      <use x="142.1875" xlink:href="#BitstreamVeraSans-Roman-6a"/>
      <use x="169.970703125" xlink:href="#BitstreamVeraSans-Roman-65"/>
      <use x="231.494140625" xlink:href="#BitstreamVeraSans-Roman-63"/>
      <use x="286.474609375" xlink:href="#BitstreamVeraSans-Roman-74"/>
      <use x="325.68359375" xlink:href="#BitstreamVeraSans-Roman-69"/>
      <use x="353.466796875" xlink:href="#BitstreamVeraSans-Roman-76"/>
      <use x="412.646484375" xlink:href="#BitstreamVeraSans-Roman-65"/>
      <use x="474.169921875" xlink:href="#BitstreamVeraSans-Roman-20"/>
      <use x="505.95703125" xlink:href="#BitstreamVeraSans-Roman-76"/>
      <use x="565.13671875" xlink:href="#BitstreamVeraSans-Roman-61"/>
      <use x="626.416015625" xlink:href="#BitstreamVeraSans-Roman-6c"/>
      <use x="654.19921875" xlink:href="#BitstreamVeraSans-Roman-75"/>
      <use x="717.578125" xlink:href="#BitstreamVeraSans-Roman-65"/>
      <use x="779.1015625" xlink:href="#BitstreamVeraSans-Roman-73"/>
     </g>
    </g>
   </g>
   <g id="legend_1">
    <g id="patch_7">
     <path d="M 289.625625 73.6275 
L 382.8 73.6275 
L 382.8 34.8 
L 289.625625 34.8 
z
" style="fill:#ffffff;stroke:#000000;stroke-linejoin:miter;"/>
    </g>
    <g id="line2d_42">
     <path d="M 298.025625 44.518125 
L 314.825625 44.518125 
" style="fill:none;stroke:#0000ff;stroke-linecap:square;stroke-width:1.5;"/>
    </g>
    <g id="line2d_43"/>
    <g id="text_16">
     <!-- Average -->
     <defs>
      <path d="M 45.40625 27.984375 
Q 45.40625 37.75 41.375 43.109375 
Q 37.359375 48.484375 30.078125 48.484375 
Q 22.859375 48.484375 18.828125 43.109375 
Q 14.796875 37.75 14.796875 27.984375 
Q 14.796875 18.265625 18.828125 12.890625 
Q 22.859375 7.515625 30.078125 7.515625 
Q 37.359375 7.515625 41.375 12.890625 
Q 45.40625 18.265625 45.40625 27.984375 
M 54.390625 6.78125 
Q 54.390625 -7.171875 48.1875 -13.984375 
Q 42 -20.796875 29.203125 -20.796875 
Q 24.46875 -20.796875 20.265625 -20.09375 
Q 16.0625 -19.390625 12.109375 -17.921875 
L 12.109375 -9.1875 
Q 16.0625 -11.328125 19.921875 -12.34375 
Q 23.78125 -13.375 27.78125 -13.375 
Q 36.625 -13.375 41.015625 -8.765625 
Q 45.40625 -4.15625 45.40625 5.171875 
L 45.40625 9.625 
Q 42.625 4.78125 38.28125 2.390625 
Q 33.9375 0 27.875 0 
Q 17.828125 0 11.671875 7.65625 
Q 5.515625 15.328125 5.515625 27.984375 
Q 5.515625 40.671875 11.671875 48.328125 
Q 17.828125 56 27.875 56 
Q 33.9375 56 38.28125 53.609375 
Q 42.625 51.21875 45.40625 46.390625 
L 45.40625 54.6875 
L 54.390625 54.6875 
z
" id="BitstreamVeraSans-Roman-67"/>
      <path d="M 34.1875 63.1875 
L 20.796875 26.90625 
L 47.609375 26.90625 
z
M 28.609375 72.90625 
L 39.796875 72.90625 
L 67.578125 0 
L 57.328125 0 
L 50.6875 18.703125 
L 17.828125 18.703125 
L 11.1875 0 
L 0.78125 0 
z
" id="BitstreamVeraSans-Roman-41"/>
     </defs>
     <g transform="translate(328.02562500000005 48.718124999999986)scale(0.12 -0.12)">
      <use xlink:href="#BitstreamVeraSans-Roman-41"/>
      <use x="68.330078125" xlink:href="#BitstreamVeraSans-Roman-76"/>
      <use x="127.509765625" xlink:href="#BitstreamVeraSans-Roman-65"/>
      <use x="189.033203125" xlink:href="#BitstreamVeraSans-Roman-72"/>
      <use x="230.146484375" xlink:href="#BitstreamVeraSans-Roman-61"/>
      <use x="291.42578125" xlink:href="#BitstreamVeraSans-Roman-67"/>
      <use x="354.90234375" xlink:href="#BitstreamVeraSans-Roman-65"/>
     </g>
    </g>
    <g id="line2d_44">
     <path d="M 298.025625 62.131875 
L 314.825625 62.131875 
" style="fill:none;stroke:#008000;stroke-linecap:square;stroke-width:2.0;"/>
    </g>
    <g id="line2d_45"/>
    <g id="text_17">
     <!-- Optimal -->
     <defs>
      <path d="M 18.109375 8.203125 
L 18.109375 -20.796875 
L 9.078125 -20.796875 
L 9.078125 54.6875 
L 18.109375 54.6875 
L 18.109375 46.390625 
Q 20.953125 51.265625 25.265625 53.625 
Q 29.59375 56 35.59375 56 
Q 45.5625 56 51.78125 48.09375 
Q 58.015625 40.1875 58.015625 27.296875 
Q 58.015625 14.40625 51.78125 6.484375 
Q 45.5625 -1.421875 35.59375 -1.421875 
Q 29.59375 -1.421875 25.265625 0.953125 
Q 20.953125 3.328125 18.109375 8.203125 
M 48.6875 27.296875 
Q 48.6875 37.203125 44.609375 42.84375 
Q 40.53125 48.484375 33.40625 48.484375 
Q 26.265625 48.484375 22.1875 42.84375 
Q 18.109375 37.203125 18.109375 27.296875 
Q 18.109375 17.390625 22.1875 11.75 
Q 26.265625 6.109375 33.40625 6.109375 
Q 40.53125 6.109375 44.609375 11.75 
Q 48.6875 17.390625 48.6875 27.296875 
" id="BitstreamVeraSans-Roman-70"/>
      <path d="M 52 44.1875 
Q 55.375 50.25 60.0625 53.125 
Q 64.75 56 71.09375 56 
Q 79.640625 56 84.28125 50.015625 
Q 88.921875 44.046875 88.921875 33.015625 
L 88.921875 0 
L 79.890625 0 
L 79.890625 32.71875 
Q 79.890625 40.578125 77.09375 44.375 
Q 74.3125 48.1875 68.609375 48.1875 
Q 61.625 48.1875 57.5625 43.546875 
Q 53.515625 38.921875 53.515625 30.90625 
L 53.515625 0 
L 44.484375 0 
L 44.484375 32.71875 
Q 44.484375 40.625 41.703125 44.40625 
Q 38.921875 48.1875 33.109375 48.1875 
Q 26.21875 48.1875 22.15625 43.53125 
Q 18.109375 38.875 18.109375 30.90625 
L 18.109375 0 
L 9.078125 0 
L 9.078125 54.6875 
L 18.109375 54.6875 
L 18.109375 46.1875 
Q 21.1875 51.21875 25.484375 53.609375 
Q 29.78125 56 35.6875 56 
Q 41.65625 56 45.828125 52.96875 
Q 50 49.953125 52 44.1875 
" id="BitstreamVeraSans-Roman-6d"/>
     </defs>
     <g transform="translate(328.02562500000005 66.331875)scale(0.12 -0.12)">
      <use xlink:href="#BitstreamVeraSans-Roman-4f"/>
      <use x="78.7109375" xlink:href="#BitstreamVeraSans-Roman-70"/>
      <use x="142.1875" xlink:href="#BitstreamVeraSans-Roman-74"/>
      <use x="181.396484375" xlink:href="#BitstreamVeraSans-Roman-69"/>
      <use x="209.1796875" xlink:href="#BitstreamVeraSans-Roman-6d"/>
      <use x="306.591796875" xlink:href="#BitstreamVeraSans-Roman-61"/>
      <use x="367.87109375" xlink:href="#BitstreamVeraSans-Roman-6c"/>
     </g>
    </g>
   </g>
  </g>
 </g>
 <defs>
  <clipPath id="pffdc628cd6">
   <rect height="223.2" width="334.8" x="54.0" y="28.80000000000001"/>
  </clipPath>
 </defs>
</svg>
